<svg width="99" height="211" viewBox="0 0 99 211" fill="none" xmlns="http://www.w3.org/2000/svg">
<path d="M62.9788 13.7732C65.7522 17.2538 67.5038 20.7345 68.2337 24.2151C69.1095 27.6958 69.1095 31.8884 68.2337 36.7929H2.54739C2.54739 33.6287 2.40142 30.4645 2.10948 27.3003C1.81754 23.9778 2.10948 20.9718 2.98529 18.2822C3.71514 15.909 5.02887 13.8523 6.92647 12.112C8.97004 10.2134 10.8676 8.31489 12.6193 6.41635C12.7652 6.09993 12.9842 6.02083 13.2761 6.17904C13.7141 6.17904 14.006 6.09993 14.152 5.94172C17.2173 1.82822 20.7206 -0.14942 24.6618 0.00878929C28.6029 0.00878929 32.4711 0.0878987 36.2663 0.246117C40.3535 0.246117 43.4918 0.246117 45.6814 0.246117C47.8709 0.0878987 49.6225 0.325213 50.9363 0.958059C52.25 1.4327 53.7827 2.69839 55.5343 4.75514C57.2859 6.65367 59.7674 9.65969 62.9788 13.7732ZM68.8905 117.006C68.8905 118.272 68.6716 119.617 68.2337 121.04C67.9417 122.306 67.6498 123.572 67.3578 124.838C66.774 127.211 66.3361 129.584 66.0441 131.957C65.8981 134.33 66.3361 136.624 67.3578 138.839C67.9417 140.263 68.2337 141.608 68.2337 142.874C68.3796 144.139 67.9417 145.563 66.9199 147.145C66.3361 148.095 65.9711 149.36 65.8252 150.942C65.6792 152.366 65.6062 153.711 65.6062 154.977V206H21.8154C21.8154 200.621 21.7424 195.4 21.5964 190.337C21.5964 185.433 21.6694 180.449 21.8154 175.386C22.1073 166.526 22.3992 157.666 22.6912 148.807C22.9831 139.947 23.2021 131.166 23.348 122.464C23.494 111.39 23.494 100.315 23.348 89.24C23.348 78.007 23.348 66.8531 23.348 55.7783C23.494 50.3991 23.7859 46.602 24.2239 44.3871C24.6618 42.1721 25.9025 40.8273 27.9461 40.3527C29.9896 39.8781 33.4199 39.6407 38.2369 39.6407C41.8862 39.6407 45.5354 39.6407 49.1846 39.6407C52.8339 39.4825 56.4831 39.4825 60.1323 39.6407C61.4461 39.6407 62.8328 39.7199 64.2925 39.8781C65.7522 40.0363 67.2849 40.2736 68.8905 40.59V51.032C68.8905 62.1068 68.8905 73.1816 68.8905 84.2564C69.0365 95.1729 69.0365 106.09 68.8905 117.006Z" fill="white"/>
<path fill-rule="evenodd" clip-rule="evenodd" d="M71.1924 24.323C70.4079 20.8268 68.5252 17.3307 65.5441 13.8346C62.0924 9.70273 59.4251 6.68331 57.5423 4.77634C55.6595 2.71043 54.0121 1.43908 52.6 0.962331C51.1879 0.326675 49.3052 0.0883176 46.9517 0.247222H36.8318C32.7524 0.0883176 28.5946 0.00882741 24.3584 0.00882741C20.1222 -0.150077 16.3566 1.83638 13.0618 5.9682C12.9653 6.06591 12.8095 6.13357 12.5944 6.1712C12.2862 6.22513 11.9448 6.0276 11.6637 6.16547C11.6469 6.17368 11.6306 6.18319 11.6148 6.19403C11.4375 6.31515 11.3375 6.52299 11.186 6.67541C9.36696 8.50557 7.40339 10.3358 5.29531 12.1659C3.25564 13.914 1.84355 15.9799 1.05907 18.3637C0.117672 21.0652 -0.19612 24.0847 0.117672 27.4219C0.365363 29.9306 0.515297 32.4393 0.567478 34.9481C0.59055 36.0573 1.484 36.9568 2.58882 36.9568H69.5394C70.4988 36.9568 71.3287 36.2729 71.4745 35.3206C72.1219 31.0916 72.0279 27.4257 71.1924 24.323ZM71.1924 121.58C71.6631 120.149 71.8985 118.799 71.8985 117.527C72.0554 106.562 72.0554 95.5969 71.8985 84.6317V42.4448C71.8985 41.4751 71.2091 40.6403 70.2554 40.4885C69.1196 40.3077 68.0199 40.1634 66.9562 40.0557C65.3872 39.8968 63.8967 39.8173 62.4846 39.8173C58.5621 39.6584 54.6397 39.6584 50.7173 39.8173H38.9499C33.7723 39.8173 30.0852 40.0557 27.8886 40.5325C25.692 41.0092 24.3584 42.36 23.8877 44.5848C23.417 46.8096 23.1032 50.6236 22.9463 56.0268V89.6375C23.1032 100.762 23.1032 111.886 22.9463 123.01C22.7894 131.75 22.5541 140.57 22.2403 149.469L21.2989 176.167C21.142 181.253 21.0635 186.259 21.0635 191.185C21.2009 195.638 21.2782 200.212 21.2953 204.909C21.2993 206.018 22.1945 206.918 23.2993 206.918H66.3678C67.4726 206.918 68.3683 206.018 68.3683 204.909V155.667C68.3683 154.396 68.4467 153.045 68.6036 151.615C68.7605 150.026 69.1527 148.754 69.7804 147.801C70.8786 146.212 71.3493 144.781 71.1924 143.51C71.1924 142.239 70.8786 140.888 70.251 139.458C69.1528 137.233 68.6821 134.929 68.839 132.545C69.1527 130.161 69.6234 127.777 70.251 125.394L71.1924 121.58ZM67.4269 51.0011C67.2262 48.968 67.0254 46.9544 66.8247 44.9603C66.7215 43.9347 65.8615 43.1546 64.8351 43.1546H50.3589C49.2716 43.1546 48.384 44.0267 48.3539 45.1181C48.2918 47.3638 48.2101 49.5897 48.1088 51.7956C47.9781 54.6429 47.9127 57.4239 47.9127 60.1388C47.9127 70.2034 48.0108 80.3012 48.2069 90.4321V92.22C48.2153 92.3053 48.2238 92.3913 48.2322 92.4778C48.333 93.5124 49.196 94.3057 50.2313 94.3057H66.2109C67.3158 94.3057 68.2114 93.4063 68.2114 92.2968V69.1996C68.2114 68.0901 68.3022 66.3027 68.308 65.1932C68.309 65.0107 68.3094 64.8157 68.3094 64.6082C68.3748 62.8867 68.3421 60.9002 68.2114 58.6489C67.9499 56.1327 67.6884 53.5834 67.4269 51.0011ZM39.4795 60.7347C39.8063 56.7618 40.1005 52.822 40.362 48.9153C40.4928 48.0545 40.3947 47.4586 40.0678 47.1275C39.7409 46.7964 39.1853 46.4984 38.4008 46.2336C36.7664 45.5714 35.0667 45.3066 33.3016 45.439C32.1812 45.5231 31.0477 45.5671 29.901 45.5711C28.7991 45.575 27.8751 46.4328 27.8115 47.5376C27.7571 48.4834 27.6913 49.4062 27.614 50.3058C27.5487 51.7626 27.4833 53.1862 27.4179 54.5767L27.2218 59.3442C27.1564 60.9333 26.993 62.5225 26.7315 64.1116C26.5354 65.436 26.4046 66.7934 26.3393 68.1839V72.3062C26.3393 72.3334 26.3173 72.3554 26.2902 72.3554C26.2631 72.3554 26.2412 72.3775 26.2412 72.4047V72.852C26.2412 72.8656 26.2413 72.8789 26.2417 72.8922C26.2487 73.2016 26.3461 73.5107 26.3093 73.818C26.2964 73.9262 26.2792 74.0386 26.2578 74.1553C26.2472 74.2134 26.2412 74.2723 26.2412 74.3314V75.1313C26.2412 75.189 26.2878 75.2358 26.3452 75.2358C26.3978 75.2358 26.4421 75.2753 26.4486 75.3277C26.8463 78.5366 27.7251 81.4856 29.085 84.1748C30.4379 86.8503 32.5845 89.0756 35.5248 90.8507C35.6111 90.9028 35.7024 90.9469 35.7945 90.9881C36.0079 91.0836 36.2066 91.194 36.3905 91.3194C36.4901 91.3874 36.5917 91.4528 36.6993 91.5072L37.3221 91.8227C37.7144 92.0875 38.0412 92.253 38.3027 92.3193L40.0678 92.7166C40.6562 92.849 41.2772 92.9814 41.931 93.1139C42.5847 93.2463 43.2385 93.3456 43.8922 93.4118C44.546 93.5442 45.1997 93.5773 45.8534 93.5111C46.0876 93.5111 46.2956 93.4315 46.4774 93.2721C46.5203 93.2345 46.5895 93.1797 46.6363 93.147C46.8479 92.9995 46.9182 92.7661 46.8897 92.509C46.8502 92.1519 46.8107 91.8554 46.7711 91.6193C46.7495 91.4899 46.736 91.3593 46.736 91.2281V90.2335C46.736 89.9686 46.7687 89.7369 46.834 89.5382L46.9714 88.9817C47.0104 88.8236 47.0302 88.6613 47.0302 88.4984V80.8971C47.0302 78.9193 47.0484 76.9414 47.0849 74.9635C47.1053 73.8528 46.2306 72.9307 45.1246 72.9052L40.6186 72.8015C39.4684 72.775 38.5774 71.782 38.6708 70.6304C38.9404 67.3093 39.2099 64.0107 39.4795 60.7347ZM28.4378 97.3847C27.3329 97.3847 26.4373 98.2841 26.4373 99.3936V122.491C26.4373 123.6 26.3465 125.388 26.3407 126.497C26.3397 126.68 26.3393 126.875 26.3393 127.082C26.3393 128.738 26.3719 130.724 26.4373 133.041C26.6988 135.491 26.9276 138.008 27.1237 140.59C27.3231 142.558 27.5224 144.508 27.7217 146.437C27.8274 147.461 28.6863 148.238 29.7108 148.238H44.1392C45.2082 148.238 46.0889 147.394 46.1328 146.321C46.2228 144.126 46.2931 141.951 46.3437 139.795C46.4745 136.948 46.5399 134.167 46.5399 131.452C46.5399 121.321 46.4418 111.257 46.2457 101.258V99.3712C46.2457 99.2546 46.2437 99.1381 46.2396 99.0215C46.2063 98.0633 45.3616 97.3847 44.4068 97.3847H28.4378ZM68.0153 116.507C68.0153 116.478 67.992 116.455 67.9633 116.455C67.937 116.455 67.9148 116.435 67.9116 116.409C67.5166 113.182 66.6359 110.218 65.2695 107.516C63.924 104.855 61.7935 102.671 58.8779 100.964C58.7598 100.895 58.6484 100.814 58.5434 100.726C58.113 100.366 57.661 100.07 57.1874 99.8409C57.0849 99.7912 56.9854 99.7357 56.8894 99.6744C56.56 99.464 56.2808 99.3298 56.0518 99.2718L54.2867 98.8745C53.6983 98.6759 53.11 98.5435 52.5216 98.4772C51.8678 98.3448 51.2141 98.2455 50.5604 98.1793C49.972 98.1131 49.3183 98.08 48.5991 98.08C48.3376 98.08 48.1088 98.1793 47.9127 98.3779C47.7248 98.5683 47.5439 98.9072 47.565 99.1744C47.5967 99.5748 47.6143 99.9325 47.6179 100.247C47.6187 100.325 47.6252 100.403 47.6368 100.48C47.69 100.833 47.7166 101.158 47.7166 101.457C47.7166 101.722 47.6839 101.987 47.6185 102.252C47.5735 102.388 47.5284 102.541 47.4834 102.709C47.4413 102.867 47.4224 103.029 47.4224 103.192V110.893C47.4224 112.811 47.4044 114.73 47.3683 116.649C47.3475 117.752 48.2086 118.67 49.3058 118.708L53.856 118.865C54.9979 118.905 55.875 119.895 55.7809 121.038L54.9731 130.856C54.6463 134.829 54.3194 138.769 53.9925 142.676C53.9271 143.47 54.0252 144.033 54.2867 144.364C54.6136 144.695 55.2019 144.993 56.0518 145.258C57.7515 145.92 59.4513 146.185 61.151 146.053C62.2522 145.967 63.3809 145.923 64.537 145.92C65.6057 145.918 66.5174 145.112 66.59 144.041C66.6516 143.132 66.7018 142.247 66.7405 141.385C66.8058 139.862 66.8712 138.405 66.9366 137.014C67.0673 135.425 67.1327 133.836 67.1327 132.247C67.1327 130.658 67.2635 129.102 67.5249 127.579C67.7864 126.188 67.9172 124.831 67.9172 123.507C67.9172 122.116 67.9499 120.692 68.0153 119.236V116.507ZM58.8956 156.879C57.8711 154.804 56.2194 153.078 53.9406 151.701C53.845 151.643 53.754 151.578 53.6665 151.509C53.4141 151.308 53.1486 151.135 52.8701 150.988C52.6442 150.868 52.4296 150.72 52.2001 150.608C52.0742 150.546 51.9198 150.485 51.7371 150.423C51.3394 150.308 50.9416 150.218 50.5439 150.153C50.4245 150.133 50.3069 150.105 50.1911 150.07C49.88 149.977 49.5315 149.903 49.1456 149.848C49.0431 149.833 48.9416 149.812 48.8416 149.785C48.4272 149.673 47.9868 149.588 47.5205 149.529C47.0629 149.463 46.5725 149.463 46.0496 149.529C45.8614 149.529 45.6733 149.59 45.4851 149.712C45.4691 149.722 45.4444 149.745 45.4307 149.758C45.3045 149.881 45.1894 150.082 45.2094 150.258C45.2419 150.542 45.2602 150.797 45.2642 151.024C45.2653 151.087 45.2714 151.149 45.2825 151.211C45.3216 151.429 45.3465 151.648 45.3571 151.866C45.3651 152.029 45.3427 152.191 45.3061 152.35C45.2134 152.752 45.167 153.037 45.167 153.204C45.1016 155.257 45.0689 157.276 45.0689 159.263V163.362C45.0689 164.452 45.9345 165.343 47.0196 165.37L60.065 165.696C60.5528 165.709 60.9549 165.315 60.9549 164.825C60.9549 164.55 60.9324 164.299 60.8875 164.07C60.8693 163.977 60.8521 163.883 60.842 163.789C60.5712 161.262 59.9224 158.959 58.8956 156.879ZM44.5147 150.668C44.4544 150.55 44.3387 150.471 44.2323 150.392C44.059 150.265 43.8475 150.176 43.598 150.125C43.075 150.059 42.5194 150.026 41.931 150.026C41.3426 149.959 40.7869 149.893 40.2639 149.827C39.7409 149.695 39.2833 149.86 38.8911 150.324C38.6662 150.608 38.4172 150.844 38.144 151.031C38.0554 151.091 37.9586 151.138 37.8592 151.179L37.0279 151.516C35.9819 151.78 35.0013 152.244 34.0861 152.906C33.2362 153.568 32.4517 154.297 31.7326 155.091C30.1636 156.548 29.1503 158.336 28.6927 160.455C28.3659 162.044 28.1697 163.633 28.1044 165.222C28.039 166.745 28.1697 168.301 28.4966 169.89C28.8235 171.148 29.2484 172.34 29.7714 173.466C30.3598 174.591 31.1443 175.552 32.1249 176.346C33.2362 177.273 34.413 178.101 35.6551 178.829C36.8972 179.491 38.27 179.889 39.7736 180.021C40.258 180.021 40.7144 180.078 41.1427 180.191C41.2107 180.21 41.2731 180.223 41.3428 180.233C42.1701 180.343 42.9613 179.762 43.017 178.926C43.178 176.509 43.339 174.16 43.5 171.877C43.6961 169.029 43.8595 166.215 43.9903 163.434C44.0556 162.044 44.0556 160.653 43.9903 159.263C43.9903 157.872 44.0556 156.515 44.1864 155.19C44.2518 154.528 44.2191 153.866 44.0883 153.204C43.9668 152.588 44.0713 151.973 44.4019 151.357C44.4523 151.263 44.504 151.169 44.5309 151.066C44.5732 150.904 44.5678 150.772 44.5147 150.668ZM57.2285 179.227C56.2479 177.174 54.6463 175.485 52.4235 174.161L51.4115 173.478C51.302 173.404 51.202 173.315 51.0901 173.245C51.0492 173.219 51.0034 173.194 50.9526 173.168C50.9141 173.148 50.8756 173.132 50.8371 173.118C50.6606 173.055 50.4692 173.041 50.2882 172.993C49.9913 172.913 49.7089 172.848 49.4412 172.798C49.3378 172.779 49.2357 172.753 49.1351 172.722C48.7853 172.614 48.4105 172.53 48.0108 172.473C47.5532 172.34 47.0955 172.241 46.6379 172.175C46.2277 172.115 45.8175 172.109 45.4073 172.156C45.3124 172.167 45.2165 172.171 45.1223 172.186C44.9817 172.209 44.8412 172.266 44.7006 172.357C44.6846 172.368 44.6599 172.39 44.6462 172.404C44.52 172.526 44.4049 172.728 44.425 172.903C44.4565 173.179 44.4746 173.428 44.4793 173.649C44.4809 173.725 44.4905 173.801 44.5058 173.876C44.5354 174.019 44.556 174.172 44.5675 174.335C44.5827 174.548 44.5406 174.76 44.4881 174.968C44.4177 175.247 44.3825 175.507 44.3825 175.75C44.3171 178.862 44.2845 182.008 44.2845 185.186C44.2845 188.364 44.2518 191.543 44.1864 194.721C44.121 195.515 44.0883 196.31 44.0883 197.105V199.4C44.0883 199.515 43.9991 199.639 43.8893 199.671C43.8117 199.693 43.7661 199.727 43.6936 199.763C43.6826 199.768 43.6716 199.773 43.6606 199.776C43.6205 199.789 43.5774 199.793 43.5378 199.807C42.8624 200.053 42.5205 200.48 42.512 201.089C42.5102 201.213 42.534 201.338 42.5765 201.455C42.7048 201.808 42.8819 202.014 43.1077 202.071C43.3692 202.137 43.6634 202.17 43.9903 202.17C44.7094 202.236 45.3958 202.302 46.0496 202.369C46.5942 202.424 47.1388 202.456 47.6834 202.465C47.9002 202.469 48.1165 202.535 48.3324 202.515C48.3837 202.511 48.4314 202.499 48.4757 202.48C48.4928 202.472 48.5099 202.465 48.5276 202.459C48.5605 202.448 48.5943 202.437 48.629 202.426C48.8734 202.349 48.9487 202.043 48.8206 201.82C48.8166 201.813 48.8128 201.806 48.8092 201.8C48.7996 201.782 48.7881 201.765 48.774 201.751C48.6866 201.663 48.7083 201.515 48.8176 201.455C49.5893 201.037 50.3336 200.646 51.0507 200.283L53.4041 199.091C53.6445 198.945 53.8672 198.799 54.0723 198.653C54.2161 198.55 54.3726 198.467 54.5261 198.38C54.7439 198.256 54.9256 198.096 55.0712 197.899C55.7249 197.105 56.3133 196.31 56.8363 195.515L58.183 193.299C58.3283 193.06 58.5257 192.909 58.5778 192.634C58.6059 192.486 58.6247 192.264 58.6663 192.119C58.9499 191.132 59.0917 190.146 59.0917 189.159C59.1571 188.099 59.1244 187.04 58.9936 185.98C58.7975 183.531 58.2091 181.279 57.2285 179.227ZM42.8498 198.49C42.8268 198.361 42.8135 198.23 42.8135 198.099V197.303C42.8135 197.105 42.8462 196.906 42.9116 196.707C42.977 196.509 43.0097 196.31 43.0097 196.111C43.075 193.992 43.1077 191.874 43.1077 189.755V185.25C43.1077 184.163 42.247 183.274 41.1652 183.242L27.0337 182.831C26.4924 182.815 26.0451 183.252 26.0451 183.795C26.0451 184.126 26.0778 184.458 26.1431 184.789C26.47 187.503 27.1891 190.02 28.3005 192.337C29.4118 194.588 31.2096 196.442 33.6938 197.899C33.9553 198.032 34.1841 198.164 34.3803 198.296C34.6418 198.495 34.9033 198.661 35.1648 198.793L35.6411 199.034C35.845 199.138 36.0651 199.205 36.2916 199.234C36.6876 199.286 37.0638 199.337 37.4202 199.389C37.8778 199.521 38.3681 199.654 38.8911 199.786L40.4601 199.985C40.9003 200.096 41.3405 200.161 41.7807 200.179C41.9456 200.185 42.1124 200.169 42.2655 200.108C42.3802 200.061 42.4769 200.006 42.5556 199.942C42.5986 199.907 42.6659 199.853 42.7115 199.821C42.9236 199.673 42.992 199.437 42.9567 199.18C42.9211 198.921 42.8854 198.691 42.8498 198.49Z" fill="#AD7147"/>
<path d="M84.1269 26.7346C84.1269 26.8096 84.1175 26.8846 84.0989 26.9596C84.0989 27.0346 84.0989 27.1189 84.0989 27.2127H79.3938C79.3751 26.6877 79.3471 26.1721 79.3098 25.6658C79.2911 25.1596 79.3098 24.6627 79.3658 24.1752C79.4218 23.6877 79.4498 23.1909 79.4498 22.6846C79.4498 22.1784 79.4591 21.6909 79.4778 21.2221C79.4965 20.6971 79.5152 20.1815 79.5338 19.6753C79.5525 19.1503 79.5712 18.6346 79.5898 18.1284C79.6085 17.6222 79.6178 17.1065 79.6178 16.5815C79.6178 16.0565 79.6178 15.5409 79.6178 15.0347C79.6365 14.5284 79.6552 14.0128 79.6739 13.4878C79.6925 12.9628 79.7112 12.4472 79.7299 11.941C79.7485 11.416 79.7672 10.9003 79.7859 10.3941C79.8046 9.8691 79.8232 9.31598 79.8419 8.73474H82.7546V8.65036H77.0133V4.3754C77.1626 4.35665 77.3027 4.34728 77.4334 4.34728C77.5827 4.34728 77.7228 4.34728 77.8535 4.34728C78.9177 4.32853 79.9819 4.31915 81.0462 4.31915C82.1104 4.3004 83.1746 4.29103 84.2389 4.29103C84.8364 4.29103 85.4245 4.3004 86.0033 4.31915C86.6007 4.3379 87.2076 4.35665 87.8237 4.3754V8.31287C87.2822 8.36912 86.7314 8.42537 86.1713 8.48162C85.6299 8.53786 85.0977 8.59411 84.575 8.65036C84.575 9.23161 84.575 9.81285 84.575 10.3941C84.5936 10.9566 84.5936 11.5191 84.575 12.0816C84.5563 12.4003 84.5563 12.7191 84.575 13.0378C84.5936 13.2253 84.5936 13.4128 84.575 13.6003C84.5563 13.7691 84.5283 13.9284 84.4909 14.0784C84.4723 14.3597 84.4256 14.6409 84.3509 14.9222C84.2949 15.2034 84.2856 15.4753 84.3229 15.7378C84.4349 16.3378 84.4629 16.9472 84.4069 17.5659C84.3696 18.1659 84.3602 18.7753 84.3789 19.394C84.4163 19.8065 84.4069 20.2284 84.3509 20.6596C84.3136 21.0909 84.2762 21.5127 84.2389 21.9252C84.2202 22.7502 84.2015 23.5565 84.1829 24.344C84.1829 25.1315 84.1642 25.9283 84.1269 26.7346Z" fill="#AD7147"/>
<path d="M89.8962 33.0787C90.1015 33.4349 90.2789 33.8006 90.4283 34.1756C90.5776 34.5318 90.6337 34.9256 90.5963 35.3568C90.5776 35.6568 90.5683 35.9568 90.5683 36.2568C90.5683 36.5568 90.5776 36.8568 90.5963 37.1568C90.6523 37.5693 90.6337 37.9818 90.5403 38.3943C90.4656 38.788 90.3069 39.1443 90.0642 39.463C89.8775 39.8005 89.6441 40.1099 89.364 40.3911C89.084 40.6724 88.8039 40.9443 88.5238 41.2067C88.1878 41.5067 87.8237 41.7411 87.4316 41.9099C87.0582 42.0599 86.6568 42.2005 86.2273 42.3317H87.8237C88.2531 42.3317 88.5052 42.388 88.5799 42.5005C88.6732 42.5942 88.7386 42.8567 88.7759 43.288C88.9066 44.8817 88.9533 46.4754 88.9159 48.0692C88.8786 49.6629 88.8786 51.2567 88.9159 52.8504V54.0035C88.7292 54.041 88.5519 54.0879 88.3838 54.1441C88.2158 54.2004 88.0571 54.2285 87.9077 54.2285C87.4969 54.2473 87.0955 54.2473 86.7034 54.2285C86.33 54.2285 85.9473 54.2285 85.5552 54.2285C85.2751 54.2285 85.0884 54.1816 84.9951 54.0879C84.9017 54.0129 84.8083 53.8441 84.715 53.5816C84.5843 53.0941 84.5189 52.616 84.5189 52.1473C84.5189 51.6785 84.5003 51.2098 84.4629 50.741C84.4069 50.1035 84.3602 49.4567 84.3229 48.8004C84.3042 48.1442 84.2762 47.4973 84.2389 46.8598C84.2202 46.5036 84.2015 46.1661 84.1829 45.8473C84.1829 45.5098 84.1642 45.1817 84.1269 44.863C84.1082 44.5442 84.2389 44.3005 84.5189 44.1317C84.3883 43.963 84.2762 43.8036 84.1829 43.6536C84.0895 43.5036 84.1455 43.3067 84.3509 43.063C84.4443 42.9317 84.4816 42.763 84.4629 42.5567C84.4629 42.3317 84.4536 42.1255 84.4349 41.938C84.4163 41.5067 84.3789 41.0943 84.3229 40.7005C84.2856 40.288 84.2576 39.8755 84.2389 39.463C84.2202 38.3943 84.2015 37.3255 84.1829 36.2568C84.1829 35.1693 84.1642 34.0818 84.1269 32.9943C84.1269 32.7693 84.1362 32.5443 84.1549 32.3193C84.1922 32.0756 84.2109 31.8318 84.2109 31.5881C84.2109 31.3256 84.1829 31.0443 84.1269 30.7443C84.0708 30.3506 84.2295 30.1069 84.603 30.0131C84.827 29.9756 85.0417 29.9475 85.2471 29.9287C85.4525 29.91 85.6579 29.9662 85.8633 30.0975C85.9379 30.1537 86.022 30.1912 86.1153 30.21C86.2087 30.2287 86.2833 30.2475 86.3394 30.2662C86.3394 30.2662 86.3674 30.285 86.4234 30.3225C86.4981 30.3412 86.6288 30.435 86.8155 30.6037C88.1411 31.0725 89.168 31.8975 89.8962 33.0787ZM83.7628 43.4005C83.7628 43.9442 83.7908 44.488 83.8468 45.0317C83.9028 45.5567 83.8935 46.0911 83.8188 46.6348C83.7441 47.1223 83.7348 47.6098 83.7908 48.0973C83.8655 48.5661 83.8748 49.0442 83.8188 49.5317C83.7628 50.2067 83.7254 50.891 83.7068 51.5848C83.6881 52.2785 83.6601 52.9816 83.6228 53.6941C83.6228 53.7691 83.6041 53.8441 83.5667 53.9191C83.5294 54.0129 83.5014 54.1066 83.4827 54.2004H77.2373V29.9569H83.6228C83.6601 30.2944 83.6974 30.6319 83.7348 30.9693C83.7908 31.3068 83.8188 31.6443 83.8188 31.9818C83.8748 33.1818 83.8468 34.3818 83.7348 35.5818C83.6788 36.1818 83.6788 36.7818 83.7348 37.3818C83.8095 37.9818 83.8468 38.5818 83.8468 39.1818C83.8468 39.7443 83.8281 40.3068 83.7908 40.8693C83.7534 41.4317 83.7254 41.9849 83.7068 42.5286C83.7068 42.6599 83.7068 42.8005 83.7068 42.9505C83.7254 43.1005 83.7441 43.2505 83.7628 43.4005Z" fill="#AD7147"/>
<path d="M82.6985 78.4318C80.7194 77.7568 78.9737 76.6319 77.4614 75.0569C76.9759 74.5131 76.5932 73.9225 76.3131 73.285C76.0517 72.6475 75.7623 72.0194 75.4449 71.4007C75.3702 71.2694 75.3329 71.1194 75.3329 70.9507C75.3516 70.7819 75.3516 70.6225 75.3329 70.4725C75.3329 69.6476 75.3329 68.8226 75.3329 67.9976C75.3329 67.1538 75.3422 66.3288 75.3609 65.5226C75.3609 65.0163 75.4542 64.5289 75.641 64.0601C76.5185 62.0539 77.7228 60.4789 79.2538 59.3351C80.7848 58.1727 82.5772 57.3383 84.631 56.832C84.9484 56.757 85.2845 56.7383 85.6392 56.7758C85.9939 56.8133 86.3674 56.832 86.7594 56.832C86.7408 57.5633 86.7128 58.2664 86.6754 58.9414C86.6381 59.5976 86.6007 60.2539 86.5634 60.9101C86.5447 61.4914 86.5261 62.0726 86.5074 62.6539C86.4887 63.2351 86.4607 63.8257 86.4234 64.4257C86.4047 64.782 86.358 65.1382 86.2833 65.4945C86.2273 65.832 86.2087 66.1788 86.2273 66.5351C86.2647 67.5851 86.3113 68.6538 86.3674 69.7413C86.442 70.81 86.5074 71.8882 86.5634 72.9756C86.5634 73.0506 86.5447 73.1256 86.5074 73.2006C86.4887 73.2569 86.4794 73.3225 86.4794 73.3975C86.4607 73.885 86.4047 74.3725 86.3113 74.86C86.2367 75.3287 86.3207 75.8162 86.5634 76.3225C86.7128 76.6225 86.7594 76.9694 86.7034 77.3631C86.6661 77.7568 86.6288 78.1318 86.5914 78.4881C86.5727 78.7318 86.4794 78.8818 86.3113 78.9381C86.162 79.0131 85.9939 79.0318 85.8072 78.9943C85.2845 78.9193 84.7523 78.8443 84.2109 78.7693C83.6881 78.6943 83.184 78.5818 82.6985 78.4318ZM98.8862 67.7726C98.8862 68.0163 98.8862 68.2694 98.8862 68.5319C98.8862 68.7944 98.9048 69.0569 98.9422 69.3194C99.0915 70.4819 98.9515 71.5507 98.5221 72.5257C98.0927 73.5006 97.5512 74.4475 96.8977 75.3662C96.1135 76.3975 95.1893 77.2319 94.1251 77.8694C93.0795 78.5068 91.9406 78.985 90.7083 79.3037C90.2976 79.4162 89.8681 79.4443 89.42 79.3881C88.9719 79.3506 88.4678 79.3318 87.9077 79.3318C87.833 75.6756 87.7397 72.0288 87.6276 68.3913C87.5156 64.7538 87.4036 61.0976 87.2916 57.4227C87.4783 57.3664 87.6463 57.3102 87.7957 57.2539C87.945 57.1789 88.0944 57.1602 88.2438 57.1977C89.3454 57.2164 90.4096 57.3852 91.4365 57.7039C92.4634 58.0039 93.4436 58.4633 94.3772 59.082C95.6468 59.9258 96.6177 60.9476 97.2898 62.1476C97.962 63.3476 98.4847 64.6413 98.8582 66.0288C98.9328 66.2913 98.9515 66.582 98.9142 66.9007C98.8955 67.2007 98.8862 67.4913 98.8862 67.7726Z" fill="#AD7147"/>
<path d="M88.0197 87.8697C88.0011 88.4697 87.9637 89.0603 87.9077 89.6416C87.8517 90.2228 87.805 90.8134 87.7677 91.4134C87.749 91.9384 87.7397 92.4634 87.7397 92.9884C87.7397 93.4946 87.7397 94.0196 87.7397 94.5634C87.7583 95.1259 87.777 95.6884 87.7957 96.2509C87.833 96.7946 87.861 97.3477 87.8797 97.9102C87.917 98.4352 87.9264 98.9696 87.9077 99.5133C87.9077 100.038 87.8517 100.563 87.7397 101.088C87.721 101.182 87.7303 101.285 87.7677 101.398C87.8237 101.491 87.861 101.595 87.8797 101.707C87.917 101.838 87.9544 101.97 87.9917 102.101C88.0477 102.213 88.0851 102.326 88.1038 102.438C88.1224 102.757 88.0944 103.076 88.0197 103.395C87.9637 103.695 87.9731 104.004 88.0477 104.323C88.0851 104.491 88.0477 104.613 87.9357 104.688C87.8237 104.782 87.6743 104.838 87.4876 104.857C87.0582 104.876 86.6381 104.838 86.2273 104.745C85.8352 104.67 85.4245 104.576 84.9951 104.463C84.2856 104.257 83.6041 103.976 82.9506 103.62C82.3158 103.263 81.6716 102.888 81.0182 102.495C79.9913 101.82 79.1698 100.995 78.5536 100.02C77.9561 99.0258 77.4614 97.9477 77.0693 96.7852C77.0506 96.6915 77.0319 96.5884 77.0133 96.4759C77.0133 96.3634 77.0133 96.2602 77.0133 96.1665C77.0133 95.5852 77.0226 95.004 77.0413 94.4228C77.0599 93.8415 77.0413 93.2603 76.9853 92.679C76.9292 91.7603 77.0506 90.9165 77.3493 90.1478C77.6667 89.3791 78.0588 88.6384 78.5256 87.926C79.3285 86.7635 80.2713 85.7885 81.3542 85.001C82.4371 84.2135 83.6508 83.6041 84.9951 83.1729C85.1444 83.1354 85.3031 83.0791 85.4712 83.0041C85.6392 82.9104 85.7979 82.8635 85.9473 82.8635C86.3207 82.826 86.6941 82.8073 87.0675 82.8073C87.4409 82.8073 87.805 82.8073 88.1598 82.8073C88.1598 83.0885 88.1691 83.3416 88.1878 83.5666C88.2064 83.7916 88.1971 84.0072 88.1598 84.2135C88.1411 84.8322 88.1224 85.451 88.1038 86.0697C88.0851 86.6697 88.0571 87.2697 88.0197 87.8697ZM88.6079 82.8916H91.4085C91.3525 83.4166 91.3338 83.9322 91.3525 84.4385C91.3898 84.926 91.3618 85.4228 91.2685 85.9291C91.1751 86.3791 91.1191 86.8385 91.1004 87.3072C91.1004 87.7759 91.0911 88.2447 91.0724 88.7134C91.0537 88.9009 91.0351 89.0791 91.0164 89.2478C91.0164 89.4166 91.0071 89.5947 90.9884 89.7822C90.9697 89.9697 90.9137 90.1197 90.8204 90.2322C90.7457 90.3447 90.6056 90.3916 90.4003 90.3728C90.1202 90.3541 89.8401 90.3353 89.5601 90.3166C89.2987 90.2978 89.0373 90.2509 88.7759 90.1759C88.4212 90.1384 88.2438 89.9322 88.2438 89.5572C88.2811 88.4509 88.3278 87.3541 88.3838 86.2666C88.4398 85.1791 88.4865 84.0916 88.5238 83.0041C88.5238 83.0041 88.5238 82.9947 88.5238 82.976C88.5425 82.9572 88.5705 82.9291 88.6079 82.8916ZM91.0724 99.5415C91.0724 99.9165 91.0631 100.282 91.0444 100.638C91.0257 100.995 91.0164 101.36 91.0164 101.735C91.0164 102.091 91.0071 102.457 90.9884 102.832C90.9697 103.188 90.9977 103.554 91.0724 103.929C91.1098 104.173 91.0818 104.332 90.9884 104.407C90.9137 104.482 90.755 104.538 90.5123 104.576C90.2696 104.613 90.0268 104.651 89.7841 104.688C89.5601 104.745 89.3267 104.791 89.084 104.829C88.5799 104.885 88.2998 104.679 88.2438 104.21C88.2438 103.985 88.2344 103.76 88.2158 103.535C88.2158 103.291 88.2251 103.066 88.2438 102.86C88.2438 102.204 88.2531 101.557 88.2718 100.92C88.2905 100.263 88.3091 99.6071 88.3278 98.9508C88.3278 98.6321 88.3745 98.4258 88.4678 98.3321C88.5612 98.2383 88.7572 98.1915 89.056 98.1915C89.3547 98.1727 89.6534 98.1727 89.9522 98.1915C90.2696 98.1915 90.6243 98.1915 91.0164 98.1915C91.0164 98.4352 91.0257 98.6696 91.0444 98.8946C91.0631 99.1196 91.0724 99.3352 91.0724 99.5415Z" fill="#AD7147"/>
<path d="M84.547 132.435C84.3789 132.435 84.2669 132.398 84.2109 132.323C84.1549 132.248 84.1082 132.126 84.0708 131.957C84.0708 131.207 84.0522 130.448 84.0148 129.679C83.9962 128.91 83.9682 128.16 83.9308 127.429V124.054H82.2784C82.2598 124.298 82.2504 124.532 82.2504 124.757C82.2504 124.982 82.2504 125.207 82.2504 125.432C82.2318 125.882 82.2131 126.342 82.1944 126.81C82.1944 127.26 82.1758 127.72 82.1384 128.189C82.1197 128.751 82.1011 129.323 82.0824 129.904C82.0637 130.485 82.0357 131.076 81.9984 131.676C81.9984 131.901 81.9704 132.051 81.9144 132.126C81.8584 132.201 81.6996 132.238 81.4383 132.238C81.2329 132.257 81.0182 132.285 80.7941 132.323C80.5887 132.36 80.3927 132.295 80.206 132.126C80.1873 132.107 80.1406 132.117 80.0659 132.154C80.0099 132.192 79.9633 132.201 79.9259 132.182C79.8326 132.182 79.7299 132.173 79.6178 132.154C79.5245 132.135 79.4218 132.117 79.3098 132.098C78.955 132.229 78.5816 132.276 78.1895 132.238C77.8161 132.22 77.4147 132.201 76.9853 132.182V131.142C77.0226 130.56 77.0133 129.989 76.9573 129.426C76.9199 128.845 76.9946 128.282 77.1813 127.739C77.2186 127.682 77.2373 127.589 77.2373 127.457C77.2373 127.045 77.228 126.651 77.2093 126.276C77.1906 125.882 77.1813 125.489 77.1813 125.095C77.2373 124.082 77.2653 123.098 77.2653 122.142C77.3213 121.279 77.3587 120.426 77.3773 119.582C77.396 118.739 77.4054 117.885 77.4054 117.023C77.4427 116.367 77.4614 115.711 77.4614 115.054C77.4614 114.398 77.4614 113.742 77.4614 113.086C77.4427 112.842 77.4147 112.598 77.3773 112.354C77.3587 112.111 77.368 111.857 77.4054 111.595C77.5734 110.864 77.8348 110.207 78.1895 109.626C78.5443 109.045 79.0297 108.548 79.6459 108.136C79.9072 107.967 80.1593 107.807 80.402 107.657C80.6634 107.489 80.9435 107.367 81.2422 107.292C81.2796 107.292 81.3262 107.273 81.3822 107.236C81.4383 107.198 81.5036 107.179 81.5783 107.179C82.1011 107.179 82.6239 107.17 83.1466 107.151C83.6881 107.132 84.2202 107.161 84.743 107.236C85.0044 107.254 85.2658 107.348 85.5272 107.517C85.8072 107.667 86.05 107.826 86.2553 107.995C86.7968 108.407 87.2356 108.895 87.5716 109.457C87.9264 110.02 88.2251 110.611 88.4678 111.229C88.3931 111.623 88.4398 112.007 88.6079 112.382C88.7759 112.757 88.9066 113.132 89 113.507V132.463H85.9193C85.6765 132.463 85.4432 132.454 85.2191 132.435C85.0137 132.435 84.7897 132.435 84.547 132.435ZM83.9308 118.739C83.8935 118.195 83.9028 117.679 83.9588 117.192C84.0148 116.685 84.0242 116.179 83.9868 115.673C83.9495 115.186 83.9495 114.698 83.9868 114.211C84.0242 113.704 83.9962 113.198 83.9028 112.692C83.6788 112.711 83.4547 112.729 83.2307 112.748C83.0253 112.748 82.8199 112.757 82.6145 112.776C82.5959 113.77 82.5678 114.764 82.5305 115.757C82.4932 116.751 82.4558 117.745 82.4185 118.739H83.9308Z" fill="#AD7147"/>
<path d="M78.3856 157.539C78.2922 157.539 78.1802 157.511 78.0495 157.454C77.9375 157.417 77.7974 157.361 77.6294 157.286C77.9655 156.817 78.1428 156.376 78.1615 155.964C78.1989 155.532 78.0495 155.101 77.7134 154.67C77.7881 154.576 77.8628 154.482 77.9375 154.389C78.0308 154.276 78.1148 154.173 78.1895 154.079C77.9655 153.967 77.8254 153.826 77.7694 153.657C77.7321 153.489 77.7134 153.282 77.7134 153.039V135.405C77.7134 135.311 77.7134 135.208 77.7134 135.095C77.7321 134.983 77.7414 134.861 77.7414 134.73C78.1709 134.73 78.6003 134.72 79.0297 134.701C79.4591 134.664 79.8792 134.711 80.29 134.842C80.5514 134.955 80.8221 135.03 81.1022 135.067C81.4009 135.086 81.6903 135.123 81.9704 135.18C82.9413 135.386 83.8095 135.742 84.575 136.248C85.3405 136.755 86.078 137.326 86.7875 137.964C87.4969 138.601 88.0384 139.323 88.4118 140.129C88.7852 140.936 89.1213 141.779 89.42 142.661C89.5507 143.073 89.6254 143.504 89.6441 143.954C89.6628 144.386 89.6721 144.817 89.6721 145.248C89.6721 145.492 89.6628 145.745 89.6441 146.008C89.6441 146.251 89.6534 146.504 89.6721 146.767C89.7655 147.873 89.6348 148.933 89.28 149.945C88.9253 150.957 88.4585 151.932 87.8797 152.87C87.7863 153.039 87.6557 153.198 87.4876 153.348C87.3382 153.479 87.1889 153.62 87.0395 153.77C86.7408 154.014 86.4514 154.276 86.1713 154.557C85.8913 154.839 85.5925 155.111 85.2751 155.373C85.0697 155.542 84.8364 155.701 84.575 155.851C84.3322 155.982 84.0802 156.123 83.8188 156.273C83.5387 156.404 83.2493 156.507 82.9506 156.582C82.6519 156.657 82.4185 156.864 82.2504 157.201C82.2131 157.314 82.0824 157.398 81.8583 157.454C81.653 157.511 81.4663 157.539 81.2982 157.539C80.3273 157.595 79.3565 157.595 78.3856 157.539Z" fill="#AD7147"/>
<path d="M82.6985 182.895C80.7194 182.22 78.9737 181.095 77.4614 179.52C76.9759 178.976 76.5932 178.386 76.3131 177.748C76.0517 177.111 75.7623 176.483 75.4449 175.864C75.3702 175.733 75.3329 175.583 75.3329 175.414C75.3516 175.245 75.3516 175.086 75.3329 174.936C75.3329 174.111 75.3329 173.286 75.3329 172.461C75.3329 171.617 75.3422 170.792 75.3609 169.986C75.3609 169.48 75.4542 168.992 75.641 168.523C76.5185 166.517 77.7228 164.942 79.2538 163.798C80.7848 162.636 82.5772 161.802 84.631 161.295C84.9484 161.22 85.2845 161.202 85.6392 161.239C85.9939 161.277 86.3674 161.295 86.7594 161.295C86.7408 162.027 86.7128 162.73 86.6754 163.405C86.6381 164.061 86.6007 164.717 86.5634 165.373C86.5447 165.955 86.5261 166.536 86.5074 167.117C86.4887 167.698 86.4607 168.289 86.4234 168.889C86.4047 169.245 86.358 169.602 86.2833 169.958C86.2273 170.295 86.2087 170.642 86.2273 170.998C86.2647 172.048 86.3113 173.117 86.3674 174.205C86.442 175.273 86.5074 176.351 86.5634 177.439C86.5634 177.514 86.5447 177.589 86.5074 177.664C86.4887 177.72 86.4794 177.786 86.4794 177.861C86.4607 178.348 86.4047 178.836 86.3113 179.323C86.2367 179.792 86.3207 180.28 86.5634 180.786C86.7128 181.086 86.7594 181.433 86.7034 181.826C86.6661 182.22 86.6288 182.595 86.5914 182.951C86.5727 183.195 86.4794 183.345 86.3113 183.401C86.162 183.476 85.9939 183.495 85.8072 183.458C85.2845 183.383 84.7523 183.308 84.2109 183.233C83.6881 183.158 83.184 183.045 82.6985 182.895ZM98.8862 172.236C98.8862 172.48 98.8862 172.733 98.8862 172.995C98.8862 173.258 98.9048 173.52 98.9422 173.783C99.0915 174.945 98.9515 176.014 98.5221 176.989C98.0927 177.964 97.5512 178.911 96.8977 179.83C96.1135 180.861 95.1893 181.695 94.1251 182.333C93.0795 182.97 91.9406 183.448 90.7083 183.767C90.2976 183.879 89.8681 183.908 89.42 183.851C88.9719 183.814 88.4678 183.795 87.9077 183.795C87.833 180.139 87.7397 176.492 87.6276 172.855C87.5156 169.217 87.4036 165.561 87.2916 161.886C87.4783 161.83 87.6463 161.773 87.7957 161.717C87.945 161.642 88.0944 161.623 88.2438 161.661C89.3454 161.68 90.4096 161.848 91.4365 162.167C92.4634 162.467 93.4436 162.927 94.3772 163.545C95.6468 164.389 96.6177 165.411 97.2898 166.611C97.962 167.811 98.4847 169.105 98.8582 170.492C98.9328 170.755 98.9515 171.045 98.9142 171.364C98.8955 171.664 98.8862 171.955 98.8862 172.236Z" fill="#AD7147"/>
<path d="M77.2933 195.539C77.0506 195.108 76.8546 194.677 76.7052 194.245C76.5745 193.795 76.5372 193.327 76.5932 192.839C76.6492 192.483 76.6492 192.155 76.5932 191.855C76.5185 191.03 76.6492 190.308 76.9853 189.689C77.34 189.052 77.7601 188.461 78.2455 187.917C78.731 187.374 79.2911 186.952 79.9259 186.652C80.5607 186.333 81.2049 186.042 81.8583 185.78C82.0824 185.705 82.3251 185.686 82.5865 185.724C82.8666 185.761 83.128 185.78 83.3707 185.78C83.3333 186.849 83.2773 187.889 83.2027 188.902C83.1466 189.914 83.128 190.936 83.1466 191.967C83.1653 192.942 83.1746 193.936 83.1746 194.949C83.1933 195.942 83.2493 196.936 83.3427 197.93C83.492 197.986 83.6414 198.014 83.7908 198.014C85.0604 198.145 86.1246 198.549 86.9835 199.224C87.8424 199.88 88.5145 200.789 89 201.952C89.1493 202.252 89.2613 202.57 89.336 202.908C89.4107 203.227 89.4294 203.564 89.392 203.92C89.392 204.164 89.3827 204.408 89.364 204.652C89.364 204.877 89.3734 205.092 89.392 205.298C89.5227 206.123 89.392 206.836 89 207.436C88.6265 208.036 88.1971 208.598 87.7117 209.123C87.2262 209.667 86.6474 210.089 85.9753 210.389C85.3218 210.689 84.6123 210.858 83.8468 210.895C83.7161 210.895 83.5947 210.886 83.4827 210.867C83.3707 210.867 83.268 210.886 83.1746 210.923C82.8946 211.055 82.6332 211.017 82.3905 210.811C82.3158 210.736 82.2131 210.689 82.0824 210.67C81.9704 210.67 81.8677 210.652 81.7743 210.614C80.6541 210.333 79.8139 209.714 79.2538 208.758C79.0857 208.42 78.9924 208.017 78.9737 207.548C78.955 207.08 79.0017 206.62 79.1137 206.17C79.2444 205.72 79.4218 205.355 79.6459 205.073C79.8886 204.792 80.1313 204.52 80.374 204.258C80.6167 203.995 80.9248 203.817 81.2982 203.724C81.5036 203.667 81.6997 203.62 81.8864 203.583C82.0917 203.545 82.2971 203.517 82.5025 203.499C82.5959 203.892 82.6332 204.267 82.6145 204.624C82.5959 204.98 82.5959 205.336 82.6145 205.692C82.6519 205.823 82.6799 205.945 82.6985 206.058C82.7172 206.17 82.7359 206.283 82.7546 206.395C82.7546 205.758 82.7546 205.12 82.7546 204.483C82.7546 203.827 82.7359 203.18 82.6985 202.542C82.6985 201.942 82.6799 201.352 82.6425 200.77C82.6239 200.17 82.6052 199.552 82.5865 198.914C82.3811 198.858 82.1758 198.811 81.9704 198.774C81.7837 198.717 81.597 198.661 81.4102 198.605C80.5514 198.342 79.7579 197.967 79.0297 197.48C78.3202 196.992 77.7414 196.345 77.2933 195.539ZM83.6508 185.78C84.3789 185.836 84.9764 186.033 85.4432 186.371C86.0966 186.802 86.6288 187.317 87.0395 187.917C87.4689 188.499 87.6557 189.202 87.5996 190.027C87.5063 191.583 86.7501 192.689 85.3311 193.345C85.0324 193.458 84.7243 193.561 84.4069 193.655C84.0895 193.73 83.7441 193.664 83.3707 193.458C83.3707 192.202 83.38 190.936 83.3987 189.661C83.4174 188.386 83.5014 187.092 83.6508 185.78ZM82.7826 208.28H82.9506C82.9319 208.036 82.9039 207.802 82.8666 207.577C82.8479 207.352 82.8199 207.127 82.7826 206.902V208.28Z" fill="#AD7147"/>
</svg>
