<svg width="151" height="151" viewBox="0 0 151 151" fill="none" xmlns="http://www.w3.org/2000/svg">
<circle cx="75.5" cy="75.5" r="75.5" fill="#AD7147"/>
<path d="M66.3635 27.0038L91.7159 28.4968L91.729 115.957C91.7293 117.893 90.3383 119.554 88.4312 119.886C52.1549 126.202 39.2796 124.639 32.7469 119.31C27.3654 114.92 52.9157 55.9435 66.3635 27.0038Z" fill="#FFBB00" fill-opacity="0.85"/>
<path fill-rule="evenodd" clip-rule="evenodd" d="M92.5882 31.1076C92.1961 29.3672 91.2549 27.6269 89.7647 25.8866C88.0392 23.8298 86.7059 22.3268 85.7647 21.3776C84.8235 20.3492 84 19.7164 83.2941 19.479C82.5882 19.1626 81.6471 19.044 80.4706 19.1231H75.4118C73.3725 19.044 71.2941 19.0044 69.1765 19.0044C67.0588 18.9253 65.1765 19.9141 63.5294 21.9709C63.4812 22.0195 63.4033 22.0532 63.2958 22.0719C63.1417 22.0988 62.9711 22.0004 62.8305 22.0691C62.8222 22.0731 62.814 22.0779 62.8061 22.0833C62.7174 22.1436 62.6675 22.247 62.5918 22.3229C61.6824 23.2339 60.7009 24.145 59.6471 25.056C58.6275 25.9261 57.9216 26.9545 57.5294 28.1411C57.0588 29.4859 56.902 30.9889 57.0588 32.6501C57.1826 33.8989 57.2576 35.1477 57.2837 36.3965C57.2952 36.9487 57.7418 37.3965 58.2941 37.3965H91.7619C92.2415 37.3965 92.6564 37.056 92.7292 36.582C93.0529 34.4768 93.0059 32.652 92.5882 31.1076ZM92.5882 79.5202C92.8235 78.8083 92.9412 78.1359 92.9412 77.503C93.0196 72.0448 93.0196 66.5865 92.9412 61.1282V40.1283C92.9412 39.6456 92.5966 39.23 92.1198 39.1544C91.552 39.0645 91.0023 38.9927 90.4706 38.939C89.6863 38.8599 88.9412 38.8204 88.2353 38.8204C86.2745 38.7413 84.3137 38.7413 82.3529 38.8204H76.4706C73.8824 38.8204 72.0392 38.939 70.9412 39.1763C69.8431 39.4137 69.1765 40.0861 68.9412 41.1935C68.7059 42.301 68.549 44.1996 68.4706 46.8892V63.62C68.549 69.1574 68.549 74.6948 68.4706 80.2322C68.3922 84.583 68.2745 88.9734 68.1176 93.4033L67.6471 106.693C67.5686 109.224 67.5294 111.716 67.5294 114.169C67.5981 116.385 67.6367 118.662 67.6452 121C67.6473 121.552 68.0948 122 68.6471 122H90.1765C90.7288 122 91.1765 121.552 91.1765 121V96.4884C91.1765 95.8556 91.2157 95.1832 91.2941 94.4712C91.3725 93.6802 91.5686 93.0473 91.8824 92.5727C92.4314 91.7816 92.6667 91.0697 92.5882 90.4368C92.5882 89.804 92.4314 89.1316 92.1176 88.4196C91.5686 87.3121 91.3333 86.1651 91.4118 84.9785C91.5686 83.792 91.8039 82.6054 92.1176 81.4188L92.5882 79.5202ZM90.7059 44.3874C90.6055 43.3754 90.5052 42.3731 90.4049 41.3804C90.3533 40.8699 89.9234 40.4816 89.4103 40.4816H82.1738C81.6303 40.4816 81.1866 40.9157 81.1715 41.459C81.1405 42.5769 81.0997 43.6849 81.049 44.783C80.9837 46.2003 80.951 47.5846 80.951 48.936C80.951 53.946 81 58.9725 81.098 64.0155V64.9055C81.1023 64.948 81.1065 64.9908 81.1107 65.0338C81.1611 65.5489 81.5925 65.9437 82.11 65.9437H90.098C90.6503 65.9437 91.098 65.496 91.098 64.9437V53.4463C91.098 52.8941 91.1435 52.0043 91.1464 51.452C91.1468 51.3612 91.1471 51.2641 91.1471 51.1609C91.1797 50.3039 91.1634 49.3151 91.098 48.1944C90.9673 46.9419 90.8366 45.6729 90.7059 44.3874ZM76.7353 49.2327C76.8987 47.255 77.0458 45.2939 77.1765 43.3492C77.2418 42.9207 77.1928 42.624 77.0294 42.4592C76.866 42.2944 76.5882 42.1461 76.1961 42.0143C75.3791 41.6847 74.5294 41.5528 73.6471 41.6187C73.087 41.6606 72.5204 41.6825 71.9472 41.6845C71.3963 41.6864 70.9344 42.1134 70.9027 42.6634C70.8754 43.1342 70.8425 43.5935 70.8039 44.0414C70.7713 44.7665 70.7386 45.4751 70.7059 46.1673L70.6079 48.5405C70.5752 49.3315 70.4935 50.1226 70.3628 50.9137C70.2647 51.5729 70.1994 52.2486 70.1667 52.9407V54.9928C70.1667 55.0063 70.1557 55.0173 70.1422 55.0173C70.1286 55.0173 70.1177 55.0282 70.1177 55.0418V55.2645C70.1177 55.2712 70.1177 55.2779 70.1179 55.2844C70.1214 55.4385 70.1701 55.5923 70.1517 55.7453C70.1452 55.7992 70.1366 55.8551 70.126 55.9132C70.1206 55.9421 70.1177 55.9714 70.1177 56.0008V56.3991C70.1177 56.4278 70.1409 56.451 70.1696 56.451C70.1959 56.451 70.2181 56.4707 70.2213 56.4968C70.4201 58.0942 70.8594 59.5621 71.5392 60.9007C72.2155 62.2325 73.2886 63.3403 74.7584 64.2239C74.8016 64.2498 74.8472 64.2718 74.8932 64.2923C74.9999 64.3398 75.0992 64.3948 75.1912 64.4572C75.241 64.491 75.2918 64.5236 75.3455 64.5507L75.6569 64.7077C75.853 64.8395 76.0163 64.9219 76.1471 64.9549L77.0294 65.1527C77.3235 65.2186 77.634 65.2845 77.9608 65.3504C78.2876 65.4164 78.6144 65.4658 78.9412 65.4988C79.268 65.5647 79.5948 65.5812 79.9216 65.5482C80.0387 65.5482 80.1426 65.5085 80.2335 65.4292C80.2549 65.4105 80.2895 65.3832 80.3129 65.367C80.4187 65.2935 80.4538 65.1773 80.4396 65.0493C80.4198 64.8716 80.4001 64.724 80.3803 64.6065C80.3695 64.5421 80.3628 64.4771 80.3628 64.4118V63.9167C80.3628 63.7848 80.3791 63.6695 80.4118 63.5706L80.4804 63.2935C80.4999 63.2148 80.5098 63.134 80.5098 63.0529V59.2692C80.5098 58.2846 80.5189 57.3001 80.5371 56.3155C80.5474 55.7626 80.1101 55.3036 79.5572 55.2909L77.3048 55.2393C76.7298 55.2261 76.2844 54.7318 76.3311 54.1586C76.4658 52.5054 76.6006 50.8634 76.7353 49.2327ZM71.2157 67.4764C70.6634 67.4764 70.2157 67.9241 70.2157 68.4764V79.9738C70.2157 80.5261 70.1703 81.4158 70.1674 81.9681C70.1669 82.0589 70.1667 82.156 70.1667 82.2593C70.1667 83.0833 70.183 84.0721 70.2157 85.2257C70.3464 86.4453 70.4608 87.6978 70.5588 88.9833C70.6585 89.9631 70.7581 90.9333 70.8577 91.894C70.9106 92.4034 71.34 92.7902 71.8521 92.7902H79.0647C79.599 92.7902 80.0393 92.3701 80.0612 91.8362C80.1062 90.7435 80.1413 89.6606 80.1667 88.5877C80.232 87.1704 80.2647 85.7861 80.2647 84.4347C80.2647 79.3917 80.2157 74.3817 80.1177 69.4046V68.4652C80.1177 68.4072 80.1166 68.3492 80.1146 68.2912C80.098 67.8142 79.6757 67.4764 79.1984 67.4764H71.2157ZM91 76.9951C91 76.9807 90.9884 76.9691 90.974 76.9691C90.9609 76.9691 90.9498 76.9592 90.9482 76.9462C90.7507 75.34 90.3105 73.8644 89.6275 72.5194C88.9548 71.1949 87.8898 70.1078 86.4324 69.2583C86.3733 69.2238 86.3176 69.1837 86.2651 69.1399C86.05 68.9603 85.824 68.8133 85.5873 68.699C85.5361 68.6743 85.4863 68.6467 85.4383 68.6162C85.2737 68.5115 85.1341 68.4446 85.0196 68.4158L84.1373 68.218C83.8431 68.1191 83.549 68.0532 83.2549 68.0203C82.9281 67.9543 82.6013 67.9049 82.2745 67.8719C81.9804 67.839 81.6536 67.8225 81.2941 67.8225C81.1634 67.8225 81.049 67.8719 80.951 67.9708C80.8571 68.0656 80.7666 68.2343 80.7772 68.3673C80.793 68.5666 80.8018 68.7446 80.8036 68.9014C80.804 68.9402 80.8072 68.9789 80.8131 69.0172C80.8396 69.1927 80.8529 69.3548 80.8529 69.5035C80.8529 69.6353 80.8366 69.7672 80.8039 69.899C80.7814 69.9671 80.7589 70.0431 80.7364 70.1269C80.7153 70.2052 80.7059 70.2861 80.7059 70.3672V74.2004C80.7059 75.1556 80.6969 76.1108 80.6788 77.066C80.6685 77.6146 81.0989 78.072 81.6474 78.0909L83.922 78.1691C84.4928 78.1887 84.9312 78.6816 84.8842 79.2508L84.4804 84.138C84.317 86.1157 84.1536 88.0768 83.9902 90.0215C83.9575 90.4171 84.0065 90.6972 84.1373 90.862C84.3007 91.0268 84.5948 91.1751 85.0196 91.307C85.8693 91.6366 86.719 91.7684 87.5686 91.7025C88.1191 91.6598 88.6833 91.6379 89.2612 91.6367C89.7955 91.6355 90.2513 91.2342 90.2875 90.7012C90.3183 90.2488 90.3434 89.808 90.3628 89.3788C90.3954 88.6207 90.4281 87.8955 90.4608 87.2034C90.5262 86.4123 90.5588 85.6213 90.5588 84.8302C90.5588 84.0392 90.6242 83.2646 90.7549 82.5065C90.8856 81.8143 90.951 81.1386 90.951 80.4794C90.951 79.7872 90.9673 79.0786 91 78.3534V76.9951ZM86.4412 97.0916C85.9291 96.0585 85.1034 95.1994 83.9643 94.5141C83.9165 94.4854 83.871 94.4529 83.8272 94.4183C83.701 94.3187 83.5683 94.2323 83.4291 94.159C83.3162 94.0996 83.2089 94.026 83.0942 93.97C83.0312 93.9393 82.9541 93.9086 82.8627 93.8779C82.6639 93.8206 82.4651 93.7758 82.2663 93.7434C82.2066 93.7337 82.1478 93.7194 82.0899 93.7022C81.9344 93.6559 81.7602 93.619 81.5673 93.5916C81.516 93.5843 81.4653 93.5739 81.4153 93.5604C81.2082 93.5048 80.988 93.4623 80.7549 93.433C80.5261 93.4 80.2811 93.4 80.0196 93.433C79.9256 93.433 79.8315 93.4633 79.7375 93.5239C79.7295 93.5291 79.7171 93.5403 79.7102 93.5469C79.6472 93.6079 79.5896 93.7084 79.5997 93.7956C79.6159 93.9371 79.625 94.0644 79.627 94.1772C79.6276 94.2083 79.6306 94.2393 79.6362 94.27C79.6557 94.3788 79.6682 94.4876 79.6735 94.5964C79.6775 94.6774 79.6663 94.7581 79.648 94.8371C79.6016 95.0373 79.5784 95.179 79.5784 95.2623C79.5458 96.284 79.5294 97.2894 79.5294 98.2782V100.319C79.5294 100.861 79.9621 101.305 80.5045 101.318L87.0258 101.481C87.2696 101.487 87.4706 101.291 87.4706 101.047C87.4706 100.91 87.4594 100.785 87.4369 100.671C87.4278 100.625 87.4192 100.578 87.4142 100.531C87.2788 99.2736 86.9545 98.127 86.4412 97.0916ZM79.2524 93.9999C79.2222 93.9412 79.1644 93.9017 79.1112 93.8627C79.0246 93.7991 78.9189 93.7548 78.7941 93.7296C78.5327 93.6966 78.2549 93.6802 77.9608 93.6802C77.6667 93.6472 77.3889 93.6142 77.1275 93.5813C76.866 93.5154 76.6373 93.5978 76.4412 93.8285C76.3288 93.9702 76.2043 94.0875 76.0677 94.1805C76.0234 94.2107 75.975 94.2341 75.9254 94.2541L75.5098 94.4218C74.9869 94.5536 74.4967 94.7843 74.0392 95.1139C73.6144 95.4436 73.2222 95.8061 72.8628 96.2016C72.0784 96.9268 71.5719 97.8167 71.3431 98.8715C71.1797 99.6625 71.0817 100.454 71.049 101.245C71.0163 102.003 71.0817 102.777 71.2451 103.568C71.4085 104.195 71.6209 104.788 71.8824 105.348C72.1765 105.909 72.5686 106.387 73.0588 106.782C73.6144 107.243 74.2026 107.655 74.8235 108.018C75.4445 108.348 76.1307 108.545 76.8824 108.611C77.1245 108.611 77.3526 108.64 77.5667 108.696C77.6007 108.705 77.6319 108.712 77.6668 108.717C78.0803 108.772 78.4758 108.483 78.5037 108.066C78.5841 106.863 78.6646 105.694 78.7451 104.557C78.8431 103.14 78.9248 101.739 78.9902 100.355C79.0229 99.6625 79.0229 98.9704 78.9902 98.2782C78.9902 97.586 79.0229 96.9103 79.0882 96.2511C79.1209 95.9215 79.1046 95.5919 79.0392 95.2623C78.9784 94.9558 79.0307 94.6493 79.196 94.3428C79.2211 94.2961 79.247 94.2492 79.2605 94.1978C79.2816 94.1175 79.2789 94.0515 79.2524 93.9999ZM85.6078 108.216C85.1177 107.194 84.317 106.354 83.2059 105.694L82.7 105.354C82.6452 105.317 82.5952 105.273 82.5393 105.238C82.5189 105.226 82.496 105.213 82.4706 105.2C82.4513 105.19 82.4321 105.182 82.4129 105.175C82.3246 105.144 82.229 105.137 82.1384 105.113C81.99 105.073 81.8489 105.041 81.7151 105.016C81.6634 105.006 81.6123 104.993 81.562 104.978C81.3872 104.924 81.1998 104.883 81 104.854C80.7712 104.788 80.5425 104.738 80.3137 104.706C80.1087 104.676 79.9036 104.673 79.6986 104.696C79.6511 104.702 79.6032 104.704 79.5561 104.711C79.4858 104.723 79.4156 104.751 79.3453 104.797C79.3373 104.802 79.325 104.813 79.3181 104.819C79.255 104.88 79.1975 104.981 79.2075 105.068C79.2233 105.205 79.2323 105.329 79.2347 105.439C79.2355 105.477 79.2403 105.515 79.2479 105.552C79.2627 105.624 79.273 105.7 79.2788 105.781C79.2864 105.887 79.2653 105.993 79.2391 106.096C79.2039 106.235 79.1863 106.364 79.1863 106.485C79.1536 108.035 79.1373 109.6 79.1373 111.182C79.1373 112.764 79.1209 114.347 79.0882 115.929C79.0556 116.324 79.0392 116.72 79.0392 117.115V118.258C79.0392 118.315 78.9946 118.377 78.9397 118.393C78.9009 118.404 78.8782 118.421 78.8419 118.438C78.8364 118.441 78.8309 118.443 78.8254 118.445C78.8053 118.452 78.7838 118.453 78.764 118.461C78.4264 118.583 78.2555 118.795 78.2512 119.098C78.2503 119.161 78.2622 119.222 78.2835 119.281C78.3476 119.457 78.4361 119.559 78.549 119.587C78.6797 119.62 78.8268 119.637 78.9902 119.637C79.3497 119.67 79.6928 119.703 80.0196 119.736C80.2919 119.763 80.5641 119.779 80.8364 119.784C80.9447 119.785 81.0529 119.818 81.1608 119.809C81.1864 119.806 81.2103 119.8 81.2324 119.791C81.241 119.787 81.2495 119.784 81.2584 119.781C81.2748 119.775 81.2917 119.77 81.309 119.764C81.4312 119.726 81.4688 119.573 81.4048 119.462C81.4028 119.459 81.4009 119.456 81.3991 119.452C81.3943 119.444 81.3886 119.435 81.3816 119.428C81.3378 119.384 81.3487 119.31 81.4033 119.281C81.7891 119.073 82.1612 118.878 82.5196 118.697L83.6961 118.104C83.8163 118.031 83.9276 117.959 84.0301 117.886C84.102 117.835 84.1802 117.793 84.257 117.75C84.3658 117.688 84.4566 117.609 84.5294 117.511C84.8562 117.115 85.1503 116.72 85.4118 116.324L86.085 115.221C86.1576 115.102 86.2563 115.027 86.2823 114.89C86.2964 114.816 86.3058 114.706 86.3266 114.634C86.4683 114.142 86.5392 113.651 86.5392 113.16C86.5719 112.633 86.5556 112.105 86.4902 111.578C86.3922 110.358 86.098 109.238 85.6078 108.216ZM78.4201 117.805C78.4086 117.741 78.402 117.676 78.402 117.61V117.214C78.402 117.115 78.4183 117.016 78.451 116.917C78.4837 116.819 78.5 116.72 78.5 116.621C78.5327 115.566 78.549 114.511 78.549 113.457V111.214C78.549 110.673 78.1188 110.23 77.578 110.215L70.5138 110.01C70.2432 110.002 70.0196 110.219 70.0196 110.49C70.0196 110.655 70.036 110.82 70.0686 110.985C70.232 112.336 70.5915 113.588 71.1471 114.742C71.7026 115.863 72.6013 116.786 73.8431 117.511C73.9739 117.577 74.0882 117.643 74.1863 117.709C74.317 117.807 74.4477 117.89 74.5784 117.956L74.8165 118.076C74.9185 118.127 75.0285 118.161 75.1418 118.175C75.3397 118.201 75.5278 118.227 75.7059 118.252C75.9346 118.318 76.1797 118.384 76.4412 118.45L77.2255 118.549C77.4456 118.604 77.6656 118.637 77.8857 118.645C77.9681 118.649 78.0515 118.641 78.128 118.61C78.1853 118.587 78.2337 118.56 78.273 118.528C78.2945 118.51 78.3282 118.483 78.351 118.467C78.457 118.394 78.4912 118.276 78.4735 118.148C78.4557 118.019 78.4379 117.905 78.4201 117.805Z" fill="white"/>
<path d="M99.054 32.308C99.054 32.3453 99.0493 32.3827 99.04 32.42C99.04 32.4573 99.04 32.4993 99.04 32.546H96.688C96.6787 32.2847 96.6647 32.028 96.646 31.776C96.6367 31.524 96.646 31.2767 96.674 31.034C96.702 30.7913 96.716 30.544 96.716 30.292C96.716 30.04 96.7207 29.7973 96.73 29.564C96.7393 29.3027 96.7487 29.046 96.758 28.794C96.7673 28.5327 96.7767 28.276 96.786 28.024C96.7953 27.772 96.8 27.5153 96.8 27.254C96.8 26.9927 96.8 26.736 96.8 26.484C96.8093 26.232 96.8187 25.9753 96.828 25.714C96.8373 25.4527 96.8467 25.196 96.856 24.944C96.8653 24.6827 96.8747 24.426 96.884 24.174C96.8933 23.9127 96.9027 23.6373 96.912 23.348H98.368V23.306H95.498V21.178C95.5727 21.1687 95.6427 21.164 95.708 21.164C95.7827 21.164 95.8527 21.164 95.918 21.164C96.45 21.1547 96.982 21.15 97.514 21.15C98.046 21.1407 98.578 21.136 99.11 21.136C99.4087 21.136 99.7027 21.1407 99.992 21.15C100.291 21.1593 100.594 21.1687 100.902 21.178V23.138C100.631 23.166 100.356 23.194 100.076 23.222C99.8053 23.25 99.5393 23.278 99.278 23.306C99.278 23.5953 99.278 23.8847 99.278 24.174C99.2873 24.454 99.2873 24.734 99.278 25.014C99.2687 25.1727 99.2687 25.3313 99.278 25.49C99.2873 25.5833 99.2873 25.6767 99.278 25.77C99.2687 25.854 99.2547 25.9333 99.236 26.008C99.2267 26.148 99.2033 26.288 99.166 26.428C99.138 26.568 99.1333 26.7033 99.152 26.834C99.208 27.1327 99.222 27.436 99.194 27.744C99.1753 28.0427 99.1707 28.346 99.18 28.654C99.1987 28.8593 99.194 29.0693 99.166 29.284C99.1473 29.4987 99.1287 29.7087 99.11 29.914C99.1007 30.3247 99.0913 30.726 99.082 31.118C99.082 31.51 99.0727 31.9067 99.054 32.308Z" fill="white"/>
<path d="M101.938 35.466C102.041 35.6433 102.129 35.8253 102.204 36.012C102.279 36.1893 102.307 36.3853 102.288 36.6C102.279 36.7493 102.274 36.8987 102.274 37.048C102.274 37.1973 102.279 37.3467 102.288 37.496C102.316 37.7013 102.307 37.9067 102.26 38.112C102.223 38.308 102.143 38.4853 102.022 38.644C101.929 38.812 101.812 38.966 101.672 39.106C101.532 39.246 101.392 39.3813 101.252 39.512C101.084 39.6613 100.902 39.778 100.706 39.862C100.519 39.9367 100.319 40.0067 100.104 40.072H100.902C101.117 40.072 101.243 40.1 101.28 40.156C101.327 40.2027 101.359 40.3333 101.378 40.548C101.443 41.3413 101.467 42.1347 101.448 42.928C101.429 43.7213 101.429 44.5147 101.448 45.308V45.882C101.355 45.9007 101.266 45.924 101.182 45.952C101.098 45.98 101.019 45.994 100.944 45.994C100.739 46.0033 100.538 46.0033 100.342 45.994C100.155 45.994 99.964 45.994 99.768 45.994C99.628 45.994 99.5347 45.9707 99.488 45.924C99.4413 45.8867 99.3947 45.8027 99.348 45.672C99.2827 45.4293 99.25 45.1913 99.25 44.958C99.25 44.7247 99.2407 44.4913 99.222 44.258C99.194 43.9407 99.1707 43.6187 99.152 43.292C99.1427 42.9653 99.1287 42.6433 99.11 42.326C99.1007 42.1487 99.0913 41.9807 99.082 41.822C99.082 41.654 99.0727 41.4907 99.054 41.332C99.0447 41.1733 99.11 41.052 99.25 40.968C99.1847 40.884 99.1287 40.8047 99.082 40.73C99.0353 40.6553 99.0633 40.5573 99.166 40.436C99.2127 40.3707 99.2313 40.2867 99.222 40.184C99.222 40.072 99.2173 39.9693 99.208 39.876C99.1987 39.6613 99.18 39.456 99.152 39.26C99.1333 39.0547 99.1193 38.8493 99.11 38.644C99.1007 38.112 99.0913 37.58 99.082 37.048C99.082 36.5067 99.0727 35.9653 99.054 35.424C99.054 35.312 99.0587 35.2 99.068 35.088C99.0867 34.9667 99.096 34.8453 99.096 34.724C99.096 34.5933 99.082 34.4533 99.054 34.304C99.026 34.108 99.1053 33.9867 99.292 33.94C99.404 33.9213 99.5113 33.9073 99.614 33.898C99.7167 33.8887 99.8193 33.9167 99.922 33.982C99.9593 34.01 100.001 34.0287 100.048 34.038C100.095 34.0473 100.132 34.0567 100.16 34.066C100.16 34.066 100.174 34.0753 100.202 34.094C100.239 34.1033 100.305 34.15 100.398 34.234C101.061 34.4673 101.574 34.878 101.938 35.466ZM98.872 40.604C98.872 40.8747 98.886 41.1453 98.914 41.416C98.942 41.6773 98.9373 41.9433 98.9 42.214C98.8627 42.4567 98.858 42.6993 98.886 42.942C98.9233 43.1753 98.928 43.4133 98.9 43.656C98.872 43.992 98.8533 44.3327 98.844 44.678C98.8347 45.0233 98.8207 45.3733 98.802 45.728C98.802 45.7653 98.7927 45.8027 98.774 45.84C98.7553 45.8867 98.7413 45.9333 98.732 45.98H95.61V33.912H98.802C98.8207 34.08 98.8393 34.248 98.858 34.416C98.886 34.584 98.9 34.752 98.9 34.92C98.928 35.5173 98.914 36.1147 98.858 36.712C98.83 37.0107 98.83 37.3093 98.858 37.608C98.8953 37.9067 98.914 38.2053 98.914 38.504C98.914 38.784 98.9047 39.064 98.886 39.344C98.8673 39.624 98.8533 39.8993 98.844 40.17C98.844 40.2353 98.844 40.3053 98.844 40.38C98.8533 40.4547 98.8627 40.5293 98.872 40.604Z" fill="white"/>
<path d="M98.34 58.042C97.3507 57.706 96.478 57.146 95.722 56.362C95.4793 56.0913 95.288 55.7973 95.148 55.48C95.0173 55.1627 94.8727 54.85 94.714 54.542C94.6767 54.4767 94.658 54.402 94.658 54.318C94.6673 54.234 94.6673 54.1547 94.658 54.08C94.658 53.6693 94.658 53.2587 94.658 52.848C94.658 52.428 94.6627 52.0173 94.672 51.616C94.672 51.364 94.7187 51.1213 94.812 50.888C95.2507 49.8893 95.8527 49.1053 96.618 48.536C97.3833 47.9573 98.2793 47.542 99.306 47.29C99.4647 47.2527 99.6327 47.2433 99.81 47.262C99.9873 47.2807 100.174 47.29 100.37 47.29C100.361 47.654 100.347 48.004 100.328 48.34C100.309 48.6667 100.291 48.9933 100.272 49.32C100.263 49.6093 100.253 49.8987 100.244 50.188C100.235 50.4773 100.221 50.7713 100.202 51.07C100.193 51.2473 100.169 51.4247 100.132 51.602C100.104 51.77 100.095 51.9427 100.104 52.12C100.123 52.6427 100.146 53.1747 100.174 53.716C100.211 54.248 100.244 54.7847 100.272 55.326C100.272 55.3633 100.263 55.4007 100.244 55.438C100.235 55.466 100.23 55.4987 100.23 55.536C100.221 55.7787 100.193 56.0213 100.146 56.264C100.109 56.4973 100.151 56.74 100.272 56.992C100.347 57.1413 100.37 57.314 100.342 57.51C100.323 57.706 100.305 57.8927 100.286 58.07C100.277 58.1913 100.23 58.266 100.146 58.294C100.071 58.3313 99.9873 58.3407 99.894 58.322C99.6327 58.2847 99.3667 58.2473 99.096 58.21C98.8347 58.1727 98.5827 58.1167 98.34 58.042ZM106.432 52.736C106.432 52.8573 106.432 52.9833 106.432 53.114C106.432 53.2447 106.441 53.3753 106.46 53.506C106.535 54.0847 106.465 54.6167 106.25 55.102C106.035 55.5873 105.765 56.0587 105.438 56.516C105.046 57.0293 104.584 57.4447 104.052 57.762C103.529 58.0793 102.96 58.3173 102.344 58.476C102.139 58.532 101.924 58.546 101.7 58.518C101.476 58.4993 101.224 58.49 100.944 58.49C100.907 56.67 100.86 54.8547 100.804 53.044C100.748 51.2333 100.692 49.4133 100.636 47.584C100.729 47.556 100.813 47.528 100.888 47.5C100.963 47.4627 101.037 47.4533 101.112 47.472C101.663 47.4813 102.195 47.5653 102.708 47.724C103.221 47.8733 103.711 48.102 104.178 48.41C104.813 48.83 105.298 49.3387 105.634 49.936C105.97 50.5333 106.231 51.1773 106.418 51.868C106.455 51.9987 106.465 52.1433 106.446 52.302C106.437 52.4513 106.432 52.596 106.432 52.736Z" fill="white"/>
<path d="M101 62.74C100.991 63.0387 100.972 63.3327 100.944 63.622C100.916 63.9113 100.893 64.2053 100.874 64.504C100.865 64.7653 100.86 65.0267 100.86 65.288C100.86 65.54 100.86 65.8013 100.86 66.072C100.869 66.352 100.879 66.632 100.888 66.912C100.907 67.1827 100.921 67.458 100.93 67.738C100.949 67.9993 100.953 68.2653 100.944 68.536C100.944 68.7973 100.916 69.0587 100.86 69.32C100.851 69.3667 100.855 69.418 100.874 69.474C100.902 69.5207 100.921 69.572 100.93 69.628C100.949 69.6933 100.967 69.7587 100.986 69.824C101.014 69.88 101.033 69.936 101.042 69.992C101.051 70.1507 101.037 70.3093 101 70.468C100.972 70.6173 100.977 70.7713 101.014 70.93C101.033 71.014 101.014 71.0747 100.958 71.112C100.902 71.1587 100.827 71.1867 100.734 71.196C100.519 71.2053 100.309 71.1867 100.104 71.14C99.908 71.1027 99.7027 71.056 99.488 71C99.1333 70.8973 98.7927 70.7573 98.466 70.58C98.1487 70.4027 97.8267 70.216 97.5 70.02C96.9867 69.684 96.576 69.2733 96.268 68.788C95.9693 68.2933 95.722 67.7567 95.526 67.178C95.5167 67.1313 95.5073 67.08 95.498 67.024C95.498 66.968 95.498 66.9167 95.498 66.87C95.498 66.5807 95.5027 66.2913 95.512 66.002C95.5213 65.7127 95.512 65.4233 95.484 65.134C95.456 64.6767 95.5167 64.2567 95.666 63.874C95.8247 63.4913 96.0207 63.1227 96.254 62.768C96.6553 62.1893 97.1267 61.704 97.668 61.312C98.2093 60.92 98.816 60.6167 99.488 60.402C99.5627 60.3833 99.642 60.3553 99.726 60.318C99.81 60.2713 99.8893 60.248 99.964 60.248C100.151 60.2293 100.337 60.22 100.524 60.22C100.711 60.22 100.893 60.22 101.07 60.22C101.07 60.36 101.075 60.486 101.084 60.598C101.093 60.71 101.089 60.8173 101.07 60.92C101.061 61.228 101.051 61.536 101.042 61.844C101.033 62.1427 101.019 62.4413 101 62.74ZM101.294 60.262H102.694C102.666 60.5233 102.657 60.78 102.666 61.032C102.685 61.2747 102.671 61.522 102.624 61.774C102.577 61.998 102.549 62.2267 102.54 62.46C102.54 62.6933 102.535 62.9267 102.526 63.16C102.517 63.2533 102.507 63.342 102.498 63.426C102.498 63.51 102.493 63.5987 102.484 63.692C102.475 63.7853 102.447 63.86 102.4 63.916C102.363 63.972 102.293 63.9953 102.19 63.986C102.05 63.9767 101.91 63.9673 101.77 63.958C101.639 63.9487 101.509 63.9253 101.378 63.888C101.201 63.8693 101.112 63.7667 101.112 63.58C101.131 63.0293 101.154 62.4833 101.182 61.942C101.21 61.4007 101.233 60.8593 101.252 60.318C101.252 60.318 101.252 60.3133 101.252 60.304C101.261 60.2947 101.275 60.2807 101.294 60.262ZM102.526 68.55C102.526 68.7367 102.521 68.9187 102.512 69.096C102.503 69.2733 102.498 69.4553 102.498 69.642C102.498 69.8193 102.493 70.0013 102.484 70.188C102.475 70.3653 102.489 70.5473 102.526 70.734C102.545 70.8553 102.531 70.9347 102.484 70.972C102.447 71.0093 102.367 71.0373 102.246 71.056C102.125 71.0747 102.003 71.0933 101.882 71.112C101.77 71.14 101.653 71.1633 101.532 71.182C101.28 71.21 101.14 71.1073 101.112 70.874C101.112 70.762 101.107 70.65 101.098 70.538C101.098 70.4167 101.103 70.3047 101.112 70.202C101.112 69.8753 101.117 69.5533 101.126 69.236C101.135 68.9093 101.145 68.5827 101.154 68.256C101.154 68.0973 101.177 67.9947 101.224 67.948C101.271 67.9013 101.369 67.878 101.518 67.878C101.667 67.8687 101.817 67.8687 101.966 67.878C102.125 67.878 102.302 67.878 102.498 67.878C102.498 67.9993 102.503 68.116 102.512 68.228C102.521 68.34 102.526 68.4473 102.526 68.55Z" fill="white"/>
<path d="M99.264 84.924C99.18 84.924 99.124 84.9053 99.096 84.868C99.068 84.8307 99.0447 84.77 99.026 84.686C99.026 84.3127 99.0167 83.9347 98.998 83.552C98.9887 83.1693 98.9747 82.796 98.956 82.432V80.752H98.13C98.1207 80.8733 98.116 80.99 98.116 81.102C98.116 81.214 98.116 81.326 98.116 81.438C98.1067 81.662 98.0973 81.8907 98.088 82.124C98.088 82.348 98.0787 82.5767 98.06 82.81C98.0507 83.09 98.0413 83.3747 98.032 83.664C98.0227 83.9533 98.0087 84.2473 97.99 84.546C97.99 84.658 97.976 84.7327 97.948 84.77C97.92 84.8073 97.8407 84.826 97.71 84.826C97.6073 84.8353 97.5 84.8493 97.388 84.868C97.2853 84.8867 97.1873 84.854 97.094 84.77C97.0847 84.7607 97.0613 84.7653 97.024 84.784C96.996 84.8027 96.9727 84.8073 96.954 84.798C96.9073 84.798 96.856 84.7933 96.8 84.784C96.7533 84.7747 96.702 84.7653 96.646 84.756C96.4687 84.8213 96.282 84.8447 96.086 84.826C95.8993 84.8167 95.6987 84.8073 95.484 84.798V84.28C95.5027 83.9907 95.498 83.706 95.47 83.426C95.4513 83.1367 95.4887 82.8567 95.582 82.586C95.6007 82.558 95.61 82.5113 95.61 82.446C95.61 82.2407 95.6053 82.0447 95.596 81.858C95.5867 81.662 95.582 81.466 95.582 81.27C95.61 80.766 95.624 80.276 95.624 79.8C95.652 79.3707 95.6707 78.946 95.68 78.526C95.6893 78.106 95.694 77.6813 95.694 77.252C95.7127 76.9253 95.722 76.5987 95.722 76.272C95.722 75.9453 95.722 75.6187 95.722 75.292C95.7127 75.1707 95.6987 75.0493 95.68 74.928C95.6707 74.8067 95.6753 74.6807 95.694 74.55C95.778 74.186 95.9087 73.8593 96.086 73.57C96.2633 73.2807 96.506 73.0333 96.814 72.828C96.9447 72.744 97.0707 72.6647 97.192 72.59C97.3227 72.506 97.4627 72.4453 97.612 72.408C97.6307 72.408 97.654 72.3987 97.682 72.38C97.71 72.3613 97.7427 72.352 97.78 72.352C98.0413 72.352 98.3027 72.3473 98.564 72.338C98.8347 72.3287 99.1007 72.3427 99.362 72.38C99.4927 72.3893 99.6233 72.436 99.754 72.52C99.894 72.5947 100.015 72.674 100.118 72.758C100.389 72.9633 100.608 73.206 100.776 73.486C100.953 73.766 101.103 74.06 101.224 74.368C101.187 74.564 101.21 74.7553 101.294 74.942C101.378 75.1287 101.443 75.3153 101.49 75.502V84.938H99.95C99.8287 84.938 99.712 84.9333 99.6 84.924C99.4973 84.924 99.3853 84.924 99.264 84.924ZM98.956 78.106C98.9373 77.8353 98.942 77.5787 98.97 77.336C98.998 77.084 99.0027 76.832 98.984 76.58C98.9653 76.3373 98.9653 76.0947 98.984 75.852C99.0027 75.6 98.9887 75.348 98.942 75.096C98.83 75.1053 98.718 75.1147 98.606 75.124C98.5033 75.124 98.4007 75.1287 98.298 75.138C98.2887 75.6327 98.2747 76.1273 98.256 76.622C98.2373 77.1167 98.2187 77.6113 98.2 78.106H98.956Z" fill="white"/>
<path d="M96.184 97.42C96.1373 97.42 96.0813 97.406 96.016 97.378C95.96 97.3593 95.89 97.3313 95.806 97.294C95.974 97.0607 96.0627 96.8413 96.072 96.636C96.0907 96.4213 96.016 96.2067 95.848 95.992C95.8853 95.9453 95.9227 95.8987 95.96 95.852C96.0067 95.796 96.0487 95.7447 96.086 95.698C95.974 95.642 95.904 95.572 95.876 95.488C95.8573 95.404 95.848 95.3013 95.848 95.18V86.402C95.848 86.3553 95.848 86.304 95.848 86.248C95.8573 86.192 95.862 86.1313 95.862 86.066C96.0767 86.066 96.2913 86.0613 96.506 86.052C96.7207 86.0333 96.9307 86.0567 97.136 86.122C97.2667 86.178 97.402 86.2153 97.542 86.234C97.6913 86.2433 97.836 86.262 97.976 86.29C98.4613 86.3927 98.8953 86.57 99.278 86.822C99.6607 87.074 100.029 87.3587 100.384 87.676C100.739 87.9933 101.009 88.3527 101.196 88.754C101.383 89.1553 101.551 89.5753 101.7 90.014C101.765 90.2193 101.803 90.434 101.812 90.658C101.821 90.8727 101.826 91.0873 101.826 91.302C101.826 91.4233 101.821 91.5493 101.812 91.68C101.812 91.8013 101.817 91.9273 101.826 92.058C101.873 92.6087 101.807 93.136 101.63 93.64C101.453 94.144 101.219 94.6293 100.93 95.096C100.883 95.18 100.818 95.2593 100.734 95.334C100.659 95.3993 100.585 95.4693 100.51 95.544C100.361 95.6653 100.216 95.796 100.076 95.936C99.936 96.076 99.7867 96.2113 99.628 96.342C99.5253 96.426 99.4087 96.5053 99.278 96.58C99.1567 96.6453 99.0307 96.7153 98.9 96.79C98.76 96.8553 98.6153 96.9067 98.466 96.944C98.3167 96.9813 98.2 97.084 98.116 97.252C98.0973 97.308 98.032 97.35 97.92 97.378C97.8173 97.406 97.724 97.42 97.64 97.42C97.1547 97.448 96.6693 97.448 96.184 97.42Z" fill="white"/>
<path d="M98.34 110.042C97.3507 109.706 96.478 109.146 95.722 108.362C95.4793 108.091 95.288 107.797 95.148 107.48C95.0173 107.163 94.8727 106.85 94.714 106.542C94.6767 106.477 94.658 106.402 94.658 106.318C94.6673 106.234 94.6673 106.155 94.658 106.08C94.658 105.669 94.658 105.259 94.658 104.848C94.658 104.428 94.6627 104.017 94.672 103.616C94.672 103.364 94.7187 103.121 94.812 102.888C95.2507 101.889 95.8527 101.105 96.618 100.536C97.3833 99.9573 98.2793 99.542 99.306 99.29C99.4647 99.2527 99.6327 99.2433 99.81 99.262C99.9873 99.2807 100.174 99.29 100.37 99.29C100.361 99.654 100.347 100.004 100.328 100.34C100.309 100.667 100.291 100.993 100.272 101.32C100.263 101.609 100.253 101.899 100.244 102.188C100.235 102.477 100.221 102.771 100.202 103.07C100.193 103.247 100.169 103.425 100.132 103.602C100.104 103.77 100.095 103.943 100.104 104.12C100.123 104.643 100.146 105.175 100.174 105.716C100.211 106.248 100.244 106.785 100.272 107.326C100.272 107.363 100.263 107.401 100.244 107.438C100.235 107.466 100.23 107.499 100.23 107.536C100.221 107.779 100.193 108.021 100.146 108.264C100.109 108.497 100.151 108.74 100.272 108.992C100.347 109.141 100.37 109.314 100.342 109.51C100.323 109.706 100.305 109.893 100.286 110.07C100.277 110.191 100.23 110.266 100.146 110.294C100.071 110.331 99.9873 110.341 99.894 110.322C99.6327 110.285 99.3667 110.247 99.096 110.21C98.8347 110.173 98.5827 110.117 98.34 110.042ZM106.432 104.736C106.432 104.857 106.432 104.983 106.432 105.114C106.432 105.245 106.441 105.375 106.46 105.506C106.535 106.085 106.465 106.617 106.25 107.102C106.035 107.587 105.765 108.059 105.438 108.516C105.046 109.029 104.584 109.445 104.052 109.762C103.529 110.079 102.96 110.317 102.344 110.476C102.139 110.532 101.924 110.546 101.7 110.518C101.476 110.499 101.224 110.49 100.944 110.49C100.907 108.67 100.86 106.855 100.804 105.044C100.748 103.233 100.692 101.413 100.636 99.584C100.729 99.556 100.813 99.528 100.888 99.5C100.963 99.4627 101.037 99.4533 101.112 99.472C101.663 99.4813 102.195 99.5653 102.708 99.724C103.221 99.8733 103.711 100.102 104.178 100.41C104.813 100.83 105.298 101.339 105.634 101.936C105.97 102.533 106.231 103.177 106.418 103.868C106.455 103.999 106.465 104.143 106.446 104.302C106.437 104.451 106.432 104.596 106.432 104.736Z" fill="white"/>
<path d="M95.638 116.336C95.5167 116.121 95.4187 115.907 95.344 115.692C95.2787 115.468 95.26 115.235 95.288 114.992C95.316 114.815 95.316 114.651 95.288 114.502C95.2507 114.091 95.316 113.732 95.484 113.424C95.6613 113.107 95.8713 112.813 96.114 112.542C96.3567 112.271 96.6367 112.061 96.954 111.912C97.2713 111.753 97.5933 111.609 97.92 111.478C98.032 111.441 98.1533 111.431 98.284 111.45C98.424 111.469 98.5547 111.478 98.676 111.478C98.6573 112.01 98.6293 112.528 98.592 113.032C98.564 113.536 98.5547 114.045 98.564 114.558C98.5733 115.043 98.578 115.538 98.578 116.042C98.5873 116.537 98.6153 117.031 98.662 117.526C98.7367 117.554 98.8113 117.568 98.886 117.568C99.5207 117.633 100.053 117.834 100.482 118.17C100.911 118.497 101.247 118.949 101.49 119.528C101.565 119.677 101.621 119.836 101.658 120.004C101.695 120.163 101.705 120.331 101.686 120.508C101.686 120.629 101.681 120.751 101.672 120.872C101.672 120.984 101.677 121.091 101.686 121.194C101.751 121.605 101.686 121.959 101.49 122.258C101.303 122.557 101.089 122.837 100.846 123.098C100.603 123.369 100.314 123.579 99.978 123.728C99.6513 123.877 99.2967 123.961 98.914 123.98C98.8487 123.98 98.788 123.975 98.732 123.966C98.676 123.966 98.6247 123.975 98.578 123.994C98.438 124.059 98.3073 124.041 98.186 123.938C98.1487 123.901 98.0973 123.877 98.032 123.868C97.976 123.868 97.9247 123.859 97.878 123.84C97.318 123.7 96.898 123.392 96.618 122.916C96.534 122.748 96.4873 122.547 96.478 122.314C96.4687 122.081 96.492 121.852 96.548 121.628C96.6133 121.404 96.702 121.222 96.814 121.082C96.9353 120.942 97.0567 120.807 97.178 120.676C97.2993 120.545 97.4533 120.457 97.64 120.41C97.7427 120.382 97.8407 120.359 97.934 120.34C98.0367 120.321 98.1393 120.307 98.242 120.298C98.2887 120.494 98.3073 120.681 98.298 120.858C98.2887 121.035 98.2887 121.213 98.298 121.39C98.3167 121.455 98.3307 121.516 98.34 121.572C98.3493 121.628 98.3587 121.684 98.368 121.74C98.368 121.423 98.368 121.105 98.368 120.788C98.368 120.461 98.3587 120.139 98.34 119.822C98.34 119.523 98.3307 119.229 98.312 118.94C98.3027 118.641 98.2933 118.333 98.284 118.016C98.1813 117.988 98.0787 117.965 97.976 117.946C97.8827 117.918 97.7893 117.89 97.696 117.862C97.2667 117.731 96.87 117.545 96.506 117.302C96.1513 117.059 95.862 116.737 95.638 116.336ZM98.816 111.478C99.18 111.506 99.4787 111.604 99.712 111.772C100.039 111.987 100.305 112.243 100.51 112.542C100.725 112.831 100.818 113.181 100.79 113.592C100.743 114.367 100.365 114.917 99.656 115.244C99.5067 115.3 99.3527 115.351 99.194 115.398C99.0353 115.435 98.8627 115.403 98.676 115.3C98.676 114.675 98.6807 114.045 98.69 113.41C98.6993 112.775 98.7413 112.131 98.816 111.478ZM98.382 122.678H98.466C98.4567 122.557 98.4427 122.44 98.424 122.328C98.4147 122.216 98.4007 122.104 98.382 121.992V122.678Z" fill="white"/>
</svg>
