<svg width="50" height="106" viewBox="0 0 50 106" fill="none" xmlns="http://www.w3.org/2000/svg">
<path fill-rule="evenodd" clip-rule="evenodd" d="M35.5882 12.1076C35.1961 10.3672 34.2549 8.62693 32.7647 6.8866C31.0392 4.82985 29.7059 3.32684 28.7647 2.37758C27.8235 1.34921 27 0.71635 26.2941 0.479031C25.5882 0.162613 24.6471 0.043963 23.4706 0.123063H18.4118C16.3725 0.043963 14.2941 0.00439413 12.1765 0.00439413C10.0588 -0.0747058 8.17647 0.914119 6.52941 2.97087C6.48119 3.0195 6.40332 3.05318 6.2958 3.07192C6.14172 3.09876 5.97105 3.00043 5.83052 3.06906C5.82216 3.07315 5.81401 3.07789 5.80609 3.08328C5.71744 3.14357 5.66749 3.24703 5.59176 3.3229C4.68243 4.23392 3.70086 5.14496 2.64706 6.05599C1.62745 6.92615 0.921571 7.95452 0.529414 9.14112C0.0588226 10.4859 -0.0980381 11.9889 0.0588226 13.6501C0.182641 14.8989 0.257591 16.1477 0.283675 17.3965C0.295209 17.9487 0.741835 18.3965 1.29412 18.3965H34.7619C35.2415 18.3965 35.6564 18.056 35.7292 17.582C36.0529 15.4768 36.0059 13.652 35.5882 12.1076ZM35.5882 60.5202C35.8235 59.8083 35.9412 59.1359 35.9412 58.503C36.0196 53.0448 36.0196 47.5865 35.9412 42.1282V21.1283C35.9412 20.6456 35.5966 20.23 35.1198 20.1544C34.552 20.0645 34.0023 19.9927 33.4706 19.939C32.6863 19.8599 31.9412 19.8204 31.2353 19.8204C29.2745 19.7413 27.3137 19.7413 25.3529 19.8204H19.4706C16.8824 19.8204 15.0392 19.939 13.9412 20.1763C12.8431 20.4137 12.1765 21.0861 11.9412 22.1935C11.7059 23.301 11.549 25.1996 11.4706 27.8892V44.62C11.549 50.1574 11.549 55.6948 11.4706 61.2322C11.3922 65.583 11.2745 69.9734 11.1176 74.4033L10.6471 87.693C10.5686 90.2244 10.5294 92.7162 10.5294 95.1685C10.5981 97.385 10.6367 99.6622 10.6452 102C10.6473 102.552 11.0948 103 11.6471 103H33.1765C33.7288 103 34.1765 102.552 34.1765 102V77.4884C34.1765 76.8556 34.2157 76.1832 34.2941 75.4712C34.3725 74.6802 34.5686 74.0473 34.8824 73.5727C35.4314 72.7816 35.6667 72.0697 35.5882 71.4368C35.5882 70.804 35.4314 70.1316 35.1176 69.4196C34.5686 68.3121 34.3333 67.1651 34.4118 65.9785C34.5686 64.792 34.8039 63.6054 35.1176 62.4188L35.5882 60.5202ZM33.7059 25.3874C33.6055 24.3754 33.5052 23.3731 33.4049 22.3804C33.3533 21.8699 32.9234 21.4816 32.4103 21.4816H25.1738C24.6303 21.4816 24.1866 21.9157 24.1715 22.459C24.1405 23.5769 24.0997 24.6849 24.049 25.783C23.9837 27.2003 23.951 28.5846 23.951 29.936C23.951 34.946 24 39.9725 24.098 45.0155V45.9055C24.1023 45.948 24.1065 45.9908 24.1107 46.0338C24.1611 46.5489 24.5925 46.9437 25.11 46.9437H33.098C33.6503 46.9437 34.098 46.496 34.098 45.9437V34.4463C34.098 33.8941 34.1435 33.0043 34.1464 32.452C34.1468 32.3612 34.1471 32.2641 34.1471 32.1609C34.1797 31.3039 34.1634 30.3151 34.098 29.1944C33.9673 27.9419 33.8366 26.6729 33.7059 25.3874ZM19.7353 30.2327C19.8987 28.255 20.0458 26.2939 20.1765 24.3492C20.2418 23.9207 20.1928 23.624 20.0294 23.4592C19.866 23.2944 19.5882 23.1461 19.1961 23.0143C18.3791 22.6847 17.5294 22.5528 16.6471 22.6187C16.087 22.6606 15.5204 22.6825 14.9472 22.6845C14.3963 22.6864 13.9344 23.1134 13.9027 23.6634C13.8754 24.1342 13.8425 24.5935 13.8039 25.0414C13.7713 25.7665 13.7386 26.4751 13.7059 27.1673L13.6079 29.5405C13.5752 30.3315 13.4935 31.1226 13.3628 31.9137C13.2647 32.5729 13.1994 33.2486 13.1667 33.9407V35.9928C13.1667 36.0063 13.1557 36.0173 13.1422 36.0173C13.1286 36.0173 13.1177 36.0282 13.1177 36.0418V36.2645C13.1177 36.2712 13.1177 36.2779 13.1179 36.2844C13.1214 36.4385 13.1701 36.5923 13.1517 36.7453C13.1452 36.7992 13.1366 36.8551 13.126 36.9132C13.1206 36.9421 13.1177 36.9714 13.1177 37.0008V37.3991C13.1177 37.4278 13.1409 37.451 13.1696 37.451C13.1959 37.451 13.2181 37.4707 13.2213 37.4968C13.4201 39.0942 13.8594 40.5621 14.5392 41.9007C15.2155 43.2325 16.2886 44.3403 17.7584 45.2239C17.8016 45.2498 17.8472 45.2718 17.8932 45.2923C17.9999 45.3398 18.0992 45.3948 18.1912 45.4572C18.241 45.491 18.2918 45.5236 18.3455 45.5507L18.6569 45.7077C18.853 45.8395 19.0163 45.9219 19.1471 45.9549L20.0294 46.1527C20.3235 46.2186 20.634 46.2845 20.9608 46.3504C21.2876 46.4164 21.6144 46.4658 21.9412 46.4988C22.268 46.5647 22.5948 46.5812 22.9216 46.5482C23.0387 46.5482 23.1426 46.5085 23.2335 46.4292C23.2549 46.4105 23.2895 46.3832 23.3129 46.367C23.4187 46.2935 23.4538 46.1773 23.4396 46.0493C23.4198 45.8716 23.4001 45.724 23.3803 45.6065C23.3695 45.5421 23.3628 45.4771 23.3628 45.4118V44.9167C23.3628 44.7848 23.3791 44.6695 23.4118 44.5706L23.4804 44.2935C23.4999 44.2148 23.5098 44.134 23.5098 44.0529V40.2692C23.5098 39.2846 23.5189 38.3001 23.5371 37.3155C23.5474 36.7626 23.1101 36.3036 22.5572 36.2909L20.3048 36.2393C19.7298 36.2261 19.2844 35.7318 19.3311 35.1586C19.4658 33.5054 19.6006 31.8634 19.7353 30.2327ZM14.2157 48.4764C13.6634 48.4764 13.2157 48.9241 13.2157 49.4764V60.9738C13.2157 61.5261 13.1703 62.4158 13.1674 62.9681C13.1669 63.0589 13.1667 63.156 13.1667 63.2593C13.1667 64.0833 13.183 65.0721 13.2157 66.2257C13.3464 67.4453 13.4608 68.6978 13.5588 69.9833C13.6585 70.9631 13.7581 71.9333 13.8577 72.894C13.9106 73.4034 14.34 73.7902 14.8521 73.7902H22.0647C22.599 73.7902 23.0393 73.3701 23.0612 72.8362C23.1062 71.7435 23.1413 70.6606 23.1667 69.5877C23.232 68.1704 23.2647 66.7861 23.2647 65.4347C23.2647 60.3917 23.2157 55.3817 23.1177 50.4046V49.4652C23.1177 49.4072 23.1166 49.3492 23.1146 49.2912C23.098 48.8142 22.6757 48.4764 22.1984 48.4764H14.2157ZM34 57.9951C34 57.9807 33.9884 57.9691 33.974 57.9691C33.9609 57.9691 33.9498 57.9592 33.9482 57.9462C33.7507 56.34 33.3105 54.8644 32.6275 53.5194C31.9548 52.1949 30.8898 51.1078 29.4324 50.2583C29.3733 50.2238 29.3176 50.1837 29.2651 50.1399C29.05 49.9603 28.824 49.8133 28.5873 49.699C28.5361 49.6743 28.4863 49.6467 28.4383 49.6162C28.2737 49.5115 28.1341 49.4446 28.0196 49.4158L27.1373 49.218C26.8431 49.1191 26.549 49.0532 26.2549 49.0203C25.9281 48.9543 25.6013 48.9049 25.2745 48.8719C24.9804 48.839 24.6536 48.8225 24.2941 48.8225C24.1634 48.8225 24.049 48.8719 23.951 48.9708C23.8571 49.0656 23.7666 49.2343 23.7772 49.3673C23.793 49.5666 23.8018 49.7446 23.8036 49.9014C23.804 49.9402 23.8072 49.9789 23.8131 50.0172C23.8396 50.1927 23.8529 50.3548 23.8529 50.5035C23.8529 50.6353 23.8366 50.7672 23.8039 50.899C23.7814 50.9671 23.7589 51.0431 23.7364 51.1269C23.7153 51.2052 23.7059 51.2861 23.7059 51.3672V55.2004C23.7059 56.1556 23.6969 57.1108 23.6788 58.066C23.6685 58.6146 24.0989 59.072 24.6474 59.0909L26.922 59.1691C27.4928 59.1887 27.9312 59.6816 27.8842 60.2508L27.4804 65.138C27.317 67.1157 27.1536 69.0768 26.9902 71.0215C26.9575 71.4171 27.0065 71.6972 27.1373 71.862C27.3007 72.0268 27.5948 72.1751 28.0196 72.307C28.8693 72.6366 29.719 72.7684 30.5686 72.7025C31.1191 72.6598 31.6833 72.6379 32.2612 72.6367C32.7955 72.6355 33.2513 72.2342 33.2875 71.7012C33.3183 71.2488 33.3434 70.808 33.3628 70.3788C33.3954 69.6207 33.4281 68.8955 33.4608 68.2034C33.5262 67.4123 33.5588 66.6213 33.5588 65.8302C33.5588 65.0392 33.6242 64.2646 33.7549 63.5065C33.8856 62.8143 33.951 62.1386 33.951 61.4794C33.951 60.7872 33.9673 60.0786 34 59.3534V57.9951ZM29.4412 78.0916C28.9291 77.0585 28.1034 76.1994 26.9643 75.5141C26.9165 75.4854 26.871 75.4529 26.8272 75.4183C26.701 75.3187 26.5683 75.2323 26.4291 75.159C26.3162 75.0996 26.2089 75.026 26.0942 74.97C26.0312 74.9393 25.9541 74.9086 25.8627 74.8779C25.6639 74.8206 25.4651 74.7758 25.2663 74.7434C25.2066 74.7337 25.1478 74.7194 25.0899 74.7022C24.9344 74.6559 24.7602 74.619 24.5673 74.5916C24.516 74.5843 24.4653 74.5739 24.4153 74.5604C24.2082 74.5048 23.988 74.4623 23.7549 74.433C23.5261 74.4 23.2811 74.4 23.0196 74.433C22.9256 74.433 22.8315 74.4633 22.7375 74.5239C22.7295 74.5291 22.7171 74.5403 22.7102 74.5469C22.6472 74.6079 22.5896 74.7084 22.5997 74.7956C22.6159 74.9371 22.625 75.0644 22.627 75.1772C22.6276 75.2083 22.6306 75.2393 22.6362 75.27C22.6557 75.3788 22.6682 75.4876 22.6735 75.5964C22.6775 75.6774 22.6663 75.7581 22.648 75.8371C22.6016 76.0373 22.5784 76.179 22.5784 76.2623C22.5458 77.284 22.5294 78.2894 22.5294 79.2782V81.3187C22.5294 81.8613 22.9621 82.3048 23.5045 82.3184L30.0258 82.4808C30.2696 82.4868 30.4706 82.2908 30.4706 82.0469C30.4706 81.9103 30.4594 81.785 30.4369 81.6711C30.4278 81.6248 30.4192 81.5782 30.4142 81.5313C30.2788 80.2736 29.9545 79.127 29.4412 78.0916ZM22.2524 74.9999C22.2222 74.9412 22.1644 74.9017 22.1112 74.8627C22.0246 74.7991 21.9189 74.7548 21.7941 74.7296C21.5327 74.6966 21.2549 74.6802 20.9608 74.6802C20.6667 74.6472 20.3889 74.6142 20.1275 74.5813C19.866 74.5154 19.6373 74.5978 19.4412 74.8285C19.3288 74.9702 19.2043 75.0875 19.0677 75.1805C19.0234 75.2107 18.975 75.2341 18.9254 75.2541L18.5098 75.4218C17.9869 75.5536 17.4967 75.7843 17.0392 76.1139C16.6144 76.4436 16.2222 76.8061 15.8628 77.2016C15.0784 77.9268 14.5719 78.8167 14.3431 79.8715C14.1797 80.6625 14.0817 81.4536 14.049 82.2446C14.0163 83.0027 14.0817 83.7773 14.2451 84.5684C14.4085 85.1946 14.6209 85.7879 14.8824 86.3483C15.1765 86.9086 15.5686 87.3865 16.0588 87.782C16.6144 88.2435 17.2026 88.6555 17.8235 89.0181C18.4445 89.3477 19.1307 89.5454 19.8824 89.6114C20.1245 89.6114 20.3526 89.6396 20.5667 89.6962C20.6007 89.7051 20.6319 89.712 20.6668 89.7166C21.0803 89.7716 21.4758 89.4826 21.5037 89.0664C21.5841 87.8633 21.6646 86.6936 21.7451 85.5572C21.8431 84.1399 21.9248 82.739 21.9902 81.3547C22.0229 80.6625 22.0229 79.9704 21.9902 79.2782C21.9902 78.586 22.0229 77.9103 22.0882 77.2511C22.1209 76.9215 22.1046 76.5919 22.0392 76.2623C21.9784 75.9558 22.0307 75.6493 22.196 75.3428C22.2211 75.2961 22.247 75.2492 22.2605 75.1978C22.2816 75.1175 22.2789 75.0515 22.2524 74.9999ZM28.6078 89.2158C28.1177 88.194 27.317 87.3535 26.2059 86.6943L25.7 86.3542C25.6452 86.3173 25.5952 86.2733 25.5393 86.2383C25.5189 86.2255 25.496 86.2127 25.4706 86.1999C25.4513 86.1902 25.4321 86.1819 25.4129 86.1751C25.3246 86.1437 25.229 86.1369 25.1384 86.1127C24.99 86.0731 24.8489 86.0408 24.7151 86.0159C24.6634 86.0063 24.6123 85.9934 24.562 85.9779C24.3872 85.924 24.1998 85.8826 24 85.8538C23.7712 85.7879 23.5425 85.7385 23.3137 85.7055C23.1087 85.676 22.9036 85.6729 22.6986 85.6963C22.6511 85.7017 22.6032 85.7037 22.5561 85.7113C22.4858 85.7228 22.4156 85.7512 22.3453 85.7965C22.3373 85.8017 22.325 85.8128 22.3181 85.8195C22.255 85.8805 22.1975 85.9809 22.2075 86.0681C22.2233 86.2054 22.2323 86.3292 22.2347 86.4395C22.2355 86.4774 22.2403 86.5151 22.2479 86.5523C22.2627 86.6239 22.273 86.7 22.2788 86.7807C22.2864 86.887 22.2653 86.9926 22.2391 87.096C22.2039 87.2347 22.1863 87.3645 22.1863 87.4854C22.1536 89.0345 22.1373 90.6002 22.1373 92.1823C22.1373 93.7644 22.1209 95.3465 22.0882 96.9286C22.0556 97.3242 22.0392 97.7197 22.0392 98.1152V99.258C22.0392 99.3152 21.9946 99.3767 21.9397 99.3926C21.9009 99.4039 21.8782 99.4205 21.8419 99.4384C21.8364 99.4411 21.8309 99.4433 21.8254 99.4451C21.8053 99.4515 21.7838 99.4534 21.764 99.4606C21.4264 99.5827 21.2555 99.7953 21.2512 100.098C21.2503 100.161 21.2622 100.222 21.2835 100.281C21.3476 100.457 21.4361 100.559 21.549 100.587C21.6797 100.62 21.8268 100.637 21.9902 100.637C22.3497 100.67 22.6928 100.703 23.0196 100.736C23.2919 100.763 23.5641 100.779 23.8364 100.784C23.9447 100.785 24.0529 100.818 24.1608 100.809C24.1864 100.806 24.2103 100.8 24.2324 100.791C24.241 100.787 24.2495 100.784 24.2584 100.781C24.2748 100.775 24.2917 100.77 24.309 100.764C24.4312 100.726 24.4688 100.573 24.4048 100.462C24.4028 100.459 24.4009 100.456 24.3991 100.452C24.3943 100.444 24.3886 100.435 24.3816 100.428C24.3378 100.384 24.3487 100.31 24.4033 100.281C24.7891 100.073 25.1612 99.8781 25.5196 99.6973L26.6961 99.104C26.8163 99.0313 26.9276 98.9586 27.0301 98.8859C27.102 98.8348 27.1802 98.7933 27.257 98.7499C27.3658 98.6884 27.4566 98.6086 27.5294 98.5107C27.8562 98.1152 28.1503 97.7197 28.4118 97.3242L29.085 96.2208C29.1576 96.1018 29.2563 96.0267 29.2823 95.8897C29.2964 95.8159 29.3058 95.7057 29.3266 95.6336C29.4683 95.1424 29.5392 94.6511 29.5392 94.1599C29.5719 93.6326 29.5556 93.1052 29.4902 92.5778C29.3922 91.3583 29.098 90.2376 28.6078 89.2158ZM21.4201 98.805C21.4086 98.7407 21.402 98.6756 21.402 98.6103V98.2141C21.402 98.1152 21.4183 98.0163 21.451 97.9175C21.4837 97.8186 21.5 97.7197 21.5 97.6208C21.5327 96.5661 21.549 95.5113 21.549 94.4566V92.2143C21.549 91.6733 21.1188 91.2304 20.578 91.2148L13.5138 91.01C13.2432 91.0022 13.0196 91.2194 13.0196 91.4901C13.0196 91.6549 13.036 91.8197 13.0686 91.9845C13.232 93.3359 13.5915 94.5884 14.1471 95.742C14.7026 96.8627 15.6013 97.7856 16.8431 98.5107C16.9739 98.5767 17.0882 98.6426 17.1863 98.7085C17.317 98.8074 17.4477 98.8898 17.5784 98.9557L17.8165 99.0758C17.9185 99.1272 18.0285 99.1607 18.1418 99.1754C18.3397 99.201 18.5278 99.2267 18.7059 99.2523C18.9346 99.3183 19.1797 99.3842 19.4412 99.4501L20.2255 99.549C20.4456 99.6045 20.6656 99.6366 20.8857 99.6454C20.9681 99.6487 21.0515 99.6408 21.128 99.6101C21.1853 99.5871 21.2337 99.5596 21.273 99.5275C21.2945 99.51 21.3282 99.4833 21.351 99.4675C21.457 99.3939 21.4912 99.2764 21.4735 99.1485C21.4557 99.0193 21.4379 98.9048 21.4201 98.805Z" fill="white"/>
<path d="M42.054 13.308C42.054 13.3453 42.0493 13.3827 42.04 13.42C42.04 13.4573 42.04 13.4993 42.04 13.546H39.688C39.6787 13.2847 39.6647 13.028 39.646 12.776C39.6367 12.524 39.646 12.2767 39.674 12.034C39.702 11.7913 39.716 11.544 39.716 11.292C39.716 11.04 39.7207 10.7973 39.73 10.564C39.7393 10.3027 39.7487 10.046 39.758 9.794C39.7673 9.53267 39.7767 9.276 39.786 9.024C39.7953 8.772 39.8 8.51533 39.8 8.254C39.8 7.99267 39.8 7.736 39.8 7.484C39.8093 7.232 39.8187 6.97533 39.828 6.714C39.8373 6.45267 39.8467 6.196 39.856 5.944C39.8653 5.68267 39.8747 5.426 39.884 5.174C39.8933 4.91267 39.9027 4.63733 39.912 4.348H41.368V4.306H38.498V2.178C38.5727 2.16867 38.6427 2.164 38.708 2.164C38.7827 2.164 38.8527 2.164 38.918 2.164C39.45 2.15467 39.982 2.15 40.514 2.15C41.046 2.14067 41.578 2.136 42.11 2.136C42.4087 2.136 42.7027 2.14067 42.992 2.15C43.2907 2.15933 43.594 2.16867 43.902 2.178V4.138C43.6313 4.166 43.356 4.194 43.076 4.222C42.8053 4.25 42.5393 4.278 42.278 4.306C42.278 4.59533 42.278 4.88467 42.278 5.174C42.2873 5.454 42.2873 5.734 42.278 6.014C42.2687 6.17267 42.2687 6.33133 42.278 6.49C42.2873 6.58333 42.2873 6.67667 42.278 6.77C42.2687 6.854 42.2547 6.93333 42.236 7.008C42.2267 7.148 42.2033 7.288 42.166 7.428C42.138 7.568 42.1333 7.70333 42.152 7.834C42.208 8.13267 42.222 8.436 42.194 8.744C42.1753 9.04267 42.1707 9.346 42.18 9.654C42.1987 9.85933 42.194 10.0693 42.166 10.284C42.1473 10.4987 42.1287 10.7087 42.11 10.914C42.1007 11.3247 42.0913 11.726 42.082 12.118C42.082 12.51 42.0727 12.9067 42.054 13.308Z" fill="white"/>
<path d="M44.938 16.466C45.0407 16.6433 45.1293 16.8253 45.204 17.012C45.2787 17.1893 45.3067 17.3853 45.288 17.6C45.2787 17.7493 45.274 17.8987 45.274 18.048C45.274 18.1973 45.2787 18.3467 45.288 18.496C45.316 18.7013 45.3067 18.9067 45.26 19.112C45.2227 19.308 45.1433 19.4853 45.022 19.644C44.9287 19.812 44.812 19.966 44.672 20.106C44.532 20.246 44.392 20.3813 44.252 20.512C44.084 20.6613 43.902 20.778 43.706 20.862C43.5193 20.9367 43.3187 21.0067 43.104 21.072H43.902C44.1167 21.072 44.2427 21.1 44.28 21.156C44.3267 21.2027 44.3593 21.3333 44.378 21.548C44.4433 22.3413 44.4667 23.1347 44.448 23.928C44.4293 24.7213 44.4293 25.5147 44.448 26.308V26.882C44.3547 26.9007 44.266 26.924 44.182 26.952C44.098 26.98 44.0187 26.994 43.944 26.994C43.7387 27.0033 43.538 27.0033 43.342 26.994C43.1553 26.994 42.964 26.994 42.768 26.994C42.628 26.994 42.5347 26.9707 42.488 26.924C42.4413 26.8867 42.3947 26.8027 42.348 26.672C42.2827 26.4293 42.25 26.1913 42.25 25.958C42.25 25.7247 42.2407 25.4913 42.222 25.258C42.194 24.9407 42.1707 24.6187 42.152 24.292C42.1427 23.9653 42.1287 23.6433 42.11 23.326C42.1007 23.1487 42.0913 22.9807 42.082 22.822C42.082 22.654 42.0727 22.4907 42.054 22.332C42.0447 22.1733 42.11 22.052 42.25 21.968C42.1847 21.884 42.1287 21.8047 42.082 21.73C42.0353 21.6553 42.0633 21.5573 42.166 21.436C42.2127 21.3707 42.2313 21.2867 42.222 21.184C42.222 21.072 42.2173 20.9693 42.208 20.876C42.1987 20.6613 42.18 20.456 42.152 20.26C42.1333 20.0547 42.1193 19.8493 42.11 19.644C42.1007 19.112 42.0913 18.58 42.082 18.048C42.082 17.5067 42.0727 16.9653 42.054 16.424C42.054 16.312 42.0587 16.2 42.068 16.088C42.0867 15.9667 42.096 15.8453 42.096 15.724C42.096 15.5933 42.082 15.4533 42.054 15.304C42.026 15.108 42.1053 14.9867 42.292 14.94C42.404 14.9213 42.5113 14.9073 42.614 14.898C42.7167 14.8887 42.8193 14.9167 42.922 14.982C42.9593 15.01 43.0013 15.0287 43.048 15.038C43.0947 15.0473 43.132 15.0567 43.16 15.066C43.16 15.066 43.174 15.0753 43.202 15.094C43.2393 15.1033 43.3047 15.15 43.398 15.234C44.0607 15.4673 44.574 15.878 44.938 16.466ZM41.872 21.604C41.872 21.8747 41.886 22.1453 41.914 22.416C41.942 22.6773 41.9373 22.9433 41.9 23.214C41.8627 23.4567 41.858 23.6993 41.886 23.942C41.9233 24.1753 41.928 24.4133 41.9 24.656C41.872 24.992 41.8533 25.3327 41.844 25.678C41.8347 26.0233 41.8207 26.3733 41.802 26.728C41.802 26.7653 41.7927 26.8027 41.774 26.84C41.7553 26.8867 41.7413 26.9333 41.732 26.98H38.61V14.912H41.802C41.8207 15.08 41.8393 15.248 41.858 15.416C41.886 15.584 41.9 15.752 41.9 15.92C41.928 16.5173 41.914 17.1147 41.858 17.712C41.83 18.0107 41.83 18.3093 41.858 18.608C41.8953 18.9067 41.914 19.2053 41.914 19.504C41.914 19.784 41.9047 20.064 41.886 20.344C41.8673 20.624 41.8533 20.8993 41.844 21.17C41.844 21.2353 41.844 21.3053 41.844 21.38C41.8533 21.4547 41.8627 21.5293 41.872 21.604Z" fill="white"/>
<path d="M41.34 39.042C40.3507 38.706 39.478 38.146 38.722 37.362C38.4793 37.0913 38.288 36.7973 38.148 36.48C38.0173 36.1627 37.8727 35.85 37.714 35.542C37.6767 35.4767 37.658 35.402 37.658 35.318C37.6673 35.234 37.6673 35.1547 37.658 35.08C37.658 34.6693 37.658 34.2587 37.658 33.848C37.658 33.428 37.6627 33.0173 37.672 32.616C37.672 32.364 37.7187 32.1213 37.812 31.888C38.2507 30.8893 38.8527 30.1053 39.618 29.536C40.3833 28.9573 41.2793 28.542 42.306 28.29C42.4647 28.2527 42.6327 28.2433 42.81 28.262C42.9873 28.2807 43.174 28.29 43.37 28.29C43.3607 28.654 43.3467 29.004 43.328 29.34C43.3093 29.6667 43.2907 29.9933 43.272 30.32C43.2627 30.6093 43.2533 30.8987 43.244 31.188C43.2347 31.4773 43.2207 31.7713 43.202 32.07C43.1927 32.2473 43.1693 32.4247 43.132 32.602C43.104 32.77 43.0947 32.9427 43.104 33.12C43.1227 33.6427 43.146 34.1747 43.174 34.716C43.2113 35.248 43.244 35.7847 43.272 36.326C43.272 36.3633 43.2627 36.4007 43.244 36.438C43.2347 36.466 43.23 36.4987 43.23 36.536C43.2207 36.7787 43.1927 37.0213 43.146 37.264C43.1087 37.4973 43.1507 37.74 43.272 37.992C43.3467 38.1413 43.37 38.314 43.342 38.51C43.3233 38.706 43.3047 38.8927 43.286 39.07C43.2767 39.1913 43.23 39.266 43.146 39.294C43.0713 39.3313 42.9873 39.3407 42.894 39.322C42.6327 39.2847 42.3667 39.2473 42.096 39.21C41.8347 39.1727 41.5827 39.1167 41.34 39.042ZM49.432 33.736C49.432 33.8573 49.432 33.9833 49.432 34.114C49.432 34.2447 49.4413 34.3753 49.46 34.506C49.5347 35.0847 49.4647 35.6167 49.25 36.102C49.0353 36.5873 48.7647 37.0587 48.438 37.516C48.046 38.0293 47.584 38.4447 47.052 38.762C46.5293 39.0793 45.96 39.3173 45.344 39.476C45.1387 39.532 44.924 39.546 44.7 39.518C44.476 39.4993 44.224 39.49 43.944 39.49C43.9067 37.67 43.86 35.8547 43.804 34.044C43.748 32.2333 43.692 30.4133 43.636 28.584C43.7293 28.556 43.8133 28.528 43.888 28.5C43.9627 28.4627 44.0373 28.4533 44.112 28.472C44.6627 28.4813 45.1947 28.5653 45.708 28.724C46.2213 28.8733 46.7113 29.102 47.178 29.41C47.8127 29.83 48.298 30.3387 48.634 30.936C48.97 31.5333 49.2313 32.1773 49.418 32.868C49.4553 32.9987 49.4647 33.1433 49.446 33.302C49.4367 33.4513 49.432 33.596 49.432 33.736Z" fill="white"/>
<path d="M44 43.74C43.9907 44.0387 43.972 44.3327 43.944 44.622C43.916 44.9113 43.8927 45.2053 43.874 45.504C43.8647 45.7653 43.86 46.0267 43.86 46.288C43.86 46.54 43.86 46.8013 43.86 47.072C43.8693 47.352 43.8787 47.632 43.888 47.912C43.9067 48.1827 43.9207 48.458 43.93 48.738C43.9487 48.9993 43.9533 49.2653 43.944 49.536C43.944 49.7973 43.916 50.0587 43.86 50.32C43.8507 50.3667 43.8553 50.418 43.874 50.474C43.902 50.5207 43.9207 50.572 43.93 50.628C43.9487 50.6933 43.9673 50.7587 43.986 50.824C44.014 50.88 44.0327 50.936 44.042 50.992C44.0513 51.1507 44.0373 51.3093 44 51.468C43.972 51.6173 43.9767 51.7713 44.014 51.93C44.0327 52.014 44.014 52.0747 43.958 52.112C43.902 52.1587 43.8273 52.1867 43.734 52.196C43.5193 52.2053 43.3093 52.1867 43.104 52.14C42.908 52.1027 42.7027 52.056 42.488 52C42.1333 51.8973 41.7927 51.7573 41.466 51.58C41.1487 51.4027 40.8267 51.216 40.5 51.02C39.9867 50.684 39.576 50.2733 39.268 49.788C38.9693 49.2933 38.722 48.7567 38.526 48.178C38.5167 48.1313 38.5073 48.08 38.498 48.024C38.498 47.968 38.498 47.9167 38.498 47.87C38.498 47.5807 38.5027 47.2913 38.512 47.002C38.5213 46.7127 38.512 46.4233 38.484 46.134C38.456 45.6767 38.5167 45.2567 38.666 44.874C38.8247 44.4913 39.0207 44.1227 39.254 43.768C39.6553 43.1893 40.1267 42.704 40.668 42.312C41.2093 41.92 41.816 41.6167 42.488 41.402C42.5627 41.3833 42.642 41.3553 42.726 41.318C42.81 41.2713 42.8893 41.248 42.964 41.248C43.1507 41.2293 43.3373 41.22 43.524 41.22C43.7107 41.22 43.8927 41.22 44.07 41.22C44.07 41.36 44.0747 41.486 44.084 41.598C44.0933 41.71 44.0887 41.8173 44.07 41.92C44.0607 42.228 44.0513 42.536 44.042 42.844C44.0327 43.1427 44.0187 43.4413 44 43.74ZM44.294 41.262H45.694C45.666 41.5233 45.6567 41.78 45.666 42.032C45.6847 42.2747 45.6707 42.522 45.624 42.774C45.5773 42.998 45.5493 43.2267 45.54 43.46C45.54 43.6933 45.5353 43.9267 45.526 44.16C45.5167 44.2533 45.5073 44.342 45.498 44.426C45.498 44.51 45.4933 44.5987 45.484 44.692C45.4747 44.7853 45.4467 44.86 45.4 44.916C45.3627 44.972 45.2927 44.9953 45.19 44.986C45.05 44.9767 44.91 44.9673 44.77 44.958C44.6393 44.9487 44.5087 44.9253 44.378 44.888C44.2007 44.8693 44.112 44.7667 44.112 44.58C44.1307 44.0293 44.154 43.4833 44.182 42.942C44.21 42.4007 44.2333 41.8593 44.252 41.318C44.252 41.318 44.252 41.3133 44.252 41.304C44.2613 41.2947 44.2753 41.2807 44.294 41.262ZM45.526 49.55C45.526 49.7367 45.5213 49.9187 45.512 50.096C45.5027 50.2733 45.498 50.4553 45.498 50.642C45.498 50.8193 45.4933 51.0013 45.484 51.188C45.4747 51.3653 45.4887 51.5473 45.526 51.734C45.5447 51.8553 45.5307 51.9347 45.484 51.972C45.4467 52.0093 45.3673 52.0373 45.246 52.056C45.1247 52.0747 45.0033 52.0933 44.882 52.112C44.77 52.14 44.6533 52.1633 44.532 52.182C44.28 52.21 44.14 52.1073 44.112 51.874C44.112 51.762 44.1073 51.65 44.098 51.538C44.098 51.4167 44.1027 51.3047 44.112 51.202C44.112 50.8753 44.1167 50.5533 44.126 50.236C44.1353 49.9093 44.1447 49.5827 44.154 49.256C44.154 49.0973 44.1773 48.9947 44.224 48.948C44.2707 48.9013 44.3687 48.878 44.518 48.878C44.6673 48.8687 44.8167 48.8687 44.966 48.878C45.1247 48.878 45.302 48.878 45.498 48.878C45.498 48.9993 45.5027 49.116 45.512 49.228C45.5213 49.34 45.526 49.4473 45.526 49.55Z" fill="white"/>
<path d="M42.264 65.924C42.18 65.924 42.124 65.9053 42.096 65.868C42.068 65.8307 42.0447 65.77 42.026 65.686C42.026 65.3127 42.0167 64.9347 41.998 64.552C41.9887 64.1693 41.9747 63.796 41.956 63.432V61.752H41.13C41.1207 61.8733 41.116 61.99 41.116 62.102C41.116 62.214 41.116 62.326 41.116 62.438C41.1067 62.662 41.0973 62.8907 41.088 63.124C41.088 63.348 41.0787 63.5767 41.06 63.81C41.0507 64.09 41.0413 64.3747 41.032 64.664C41.0227 64.9533 41.0087 65.2473 40.99 65.546C40.99 65.658 40.976 65.7327 40.948 65.77C40.92 65.8073 40.8407 65.826 40.71 65.826C40.6073 65.8353 40.5 65.8493 40.388 65.868C40.2853 65.8867 40.1873 65.854 40.094 65.77C40.0847 65.7607 40.0613 65.7653 40.024 65.784C39.996 65.8027 39.9727 65.8073 39.954 65.798C39.9073 65.798 39.856 65.7933 39.8 65.784C39.7533 65.7747 39.702 65.7653 39.646 65.756C39.4687 65.8213 39.282 65.8447 39.086 65.826C38.8993 65.8167 38.6987 65.8073 38.484 65.798V65.28C38.5027 64.9907 38.498 64.706 38.47 64.426C38.4513 64.1367 38.4887 63.8567 38.582 63.586C38.6007 63.558 38.61 63.5113 38.61 63.446C38.61 63.2407 38.6053 63.0447 38.596 62.858C38.5867 62.662 38.582 62.466 38.582 62.27C38.61 61.766 38.624 61.276 38.624 60.8C38.652 60.3707 38.6707 59.946 38.68 59.526C38.6893 59.106 38.694 58.6813 38.694 58.252C38.7127 57.9253 38.722 57.5987 38.722 57.272C38.722 56.9453 38.722 56.6187 38.722 56.292C38.7127 56.1707 38.6987 56.0493 38.68 55.928C38.6707 55.8067 38.6753 55.6807 38.694 55.55C38.778 55.186 38.9087 54.8593 39.086 54.57C39.2633 54.2807 39.506 54.0333 39.814 53.828C39.9447 53.744 40.0707 53.6647 40.192 53.59C40.3227 53.506 40.4627 53.4453 40.612 53.408C40.6307 53.408 40.654 53.3987 40.682 53.38C40.71 53.3613 40.7427 53.352 40.78 53.352C41.0413 53.352 41.3027 53.3473 41.564 53.338C41.8347 53.3287 42.1007 53.3427 42.362 53.38C42.4927 53.3893 42.6233 53.436 42.754 53.52C42.894 53.5947 43.0153 53.674 43.118 53.758C43.3887 53.9633 43.608 54.206 43.776 54.486C43.9533 54.766 44.1027 55.06 44.224 55.368C44.1867 55.564 44.21 55.7553 44.294 55.942C44.378 56.1287 44.4433 56.3153 44.49 56.502V65.938H42.95C42.8287 65.938 42.712 65.9333 42.6 65.924C42.4973 65.924 42.3853 65.924 42.264 65.924ZM41.956 59.106C41.9373 58.8353 41.942 58.5787 41.97 58.336C41.998 58.084 42.0027 57.832 41.984 57.58C41.9653 57.3373 41.9653 57.0947 41.984 56.852C42.0027 56.6 41.9887 56.348 41.942 56.096C41.83 56.1053 41.718 56.1147 41.606 56.124C41.5033 56.124 41.4007 56.1287 41.298 56.138C41.2887 56.6327 41.2747 57.1273 41.256 57.622C41.2373 58.1167 41.2187 58.6113 41.2 59.106H41.956Z" fill="white"/>
<path d="M39.184 78.42C39.1373 78.42 39.0813 78.406 39.016 78.378C38.96 78.3593 38.89 78.3313 38.806 78.294C38.974 78.0607 39.0627 77.8413 39.072 77.636C39.0907 77.4213 39.016 77.2067 38.848 76.992C38.8853 76.9453 38.9227 76.8987 38.96 76.852C39.0067 76.796 39.0487 76.7447 39.086 76.698C38.974 76.642 38.904 76.572 38.876 76.488C38.8573 76.404 38.848 76.3013 38.848 76.18V67.402C38.848 67.3553 38.848 67.304 38.848 67.248C38.8573 67.192 38.862 67.1313 38.862 67.066C39.0767 67.066 39.2913 67.0613 39.506 67.052C39.7207 67.0333 39.9307 67.0567 40.136 67.122C40.2667 67.178 40.402 67.2153 40.542 67.234C40.6913 67.2433 40.836 67.262 40.976 67.29C41.4613 67.3927 41.8953 67.57 42.278 67.822C42.6607 68.074 43.0293 68.3587 43.384 68.676C43.7387 68.9933 44.0093 69.3527 44.196 69.754C44.3827 70.1553 44.5507 70.5753 44.7 71.014C44.7653 71.2193 44.8027 71.434 44.812 71.658C44.8213 71.8727 44.826 72.0873 44.826 72.302C44.826 72.4233 44.8213 72.5493 44.812 72.68C44.812 72.8013 44.8167 72.9273 44.826 73.058C44.8727 73.6087 44.8073 74.136 44.63 74.64C44.4527 75.144 44.2193 75.6293 43.93 76.096C43.8833 76.18 43.818 76.2593 43.734 76.334C43.6593 76.3993 43.5847 76.4693 43.51 76.544C43.3607 76.6653 43.216 76.796 43.076 76.936C42.936 77.076 42.7867 77.2113 42.628 77.342C42.5253 77.426 42.4087 77.5053 42.278 77.58C42.1567 77.6453 42.0307 77.7153 41.9 77.79C41.76 77.8553 41.6153 77.9067 41.466 77.944C41.3167 77.9813 41.2 78.084 41.116 78.252C41.0973 78.308 41.032 78.35 40.92 78.378C40.8173 78.406 40.724 78.42 40.64 78.42C40.1547 78.448 39.6693 78.448 39.184 78.42Z" fill="white"/>
<path d="M41.34 91.042C40.3507 90.706 39.478 90.146 38.722 89.362C38.4793 89.0913 38.288 88.7973 38.148 88.48C38.0173 88.1627 37.8727 87.85 37.714 87.542C37.6767 87.4767 37.658 87.402 37.658 87.318C37.6673 87.234 37.6673 87.1547 37.658 87.08C37.658 86.6693 37.658 86.2587 37.658 85.848C37.658 85.428 37.6627 85.0173 37.672 84.616C37.672 84.364 37.7187 84.1213 37.812 83.888C38.2507 82.8893 38.8527 82.1053 39.618 81.536C40.3833 80.9573 41.2793 80.542 42.306 80.29C42.4647 80.2527 42.6327 80.2433 42.81 80.262C42.9873 80.2807 43.174 80.29 43.37 80.29C43.3607 80.654 43.3467 81.004 43.328 81.34C43.3093 81.6667 43.2907 81.9933 43.272 82.32C43.2627 82.6093 43.2533 82.8987 43.244 83.188C43.2347 83.4773 43.2207 83.7713 43.202 84.07C43.1927 84.2473 43.1693 84.4247 43.132 84.602C43.104 84.77 43.0947 84.9427 43.104 85.12C43.1227 85.6427 43.146 86.1747 43.174 86.716C43.2113 87.248 43.244 87.7847 43.272 88.326C43.272 88.3633 43.2627 88.4007 43.244 88.438C43.2347 88.466 43.23 88.4987 43.23 88.536C43.2207 88.7787 43.1927 89.0213 43.146 89.264C43.1087 89.4973 43.1507 89.74 43.272 89.992C43.3467 90.1413 43.37 90.314 43.342 90.51C43.3233 90.706 43.3047 90.8927 43.286 91.07C43.2767 91.1913 43.23 91.266 43.146 91.294C43.0713 91.3313 42.9873 91.3407 42.894 91.322C42.6327 91.2847 42.3667 91.2473 42.096 91.21C41.8347 91.1727 41.5827 91.1167 41.34 91.042ZM49.432 85.736C49.432 85.8573 49.432 85.9833 49.432 86.114C49.432 86.2447 49.4413 86.3753 49.46 86.506C49.5347 87.0847 49.4647 87.6167 49.25 88.102C49.0353 88.5873 48.7647 89.0587 48.438 89.516C48.046 90.0293 47.584 90.4447 47.052 90.762C46.5293 91.0793 45.96 91.3173 45.344 91.476C45.1387 91.532 44.924 91.546 44.7 91.518C44.476 91.4993 44.224 91.49 43.944 91.49C43.9067 89.67 43.86 87.8547 43.804 86.044C43.748 84.2333 43.692 82.4133 43.636 80.584C43.7293 80.556 43.8133 80.528 43.888 80.5C43.9627 80.4627 44.0373 80.4533 44.112 80.472C44.6627 80.4813 45.1947 80.5653 45.708 80.724C46.2213 80.8733 46.7113 81.102 47.178 81.41C47.8127 81.83 48.298 82.3387 48.634 82.936C48.97 83.5333 49.2313 84.1773 49.418 84.868C49.4553 84.9987 49.4647 85.1433 49.446 85.302C49.4367 85.4513 49.432 85.596 49.432 85.736Z" fill="white"/>
<path d="M38.638 97.336C38.5167 97.1213 38.4187 96.9067 38.344 96.692C38.2787 96.468 38.26 96.2347 38.288 95.992C38.316 95.8147 38.316 95.6513 38.288 95.502C38.2507 95.0913 38.316 94.732 38.484 94.424C38.6613 94.1067 38.8713 93.8127 39.114 93.542C39.3567 93.2713 39.6367 93.0613 39.954 92.912C40.2713 92.7533 40.5933 92.6087 40.92 92.478C41.032 92.4407 41.1533 92.4313 41.284 92.45C41.424 92.4687 41.5547 92.478 41.676 92.478C41.6573 93.01 41.6293 93.528 41.592 94.032C41.564 94.536 41.5547 95.0447 41.564 95.558C41.5733 96.0433 41.578 96.538 41.578 97.042C41.5873 97.5367 41.6153 98.0313 41.662 98.526C41.7367 98.554 41.8113 98.568 41.886 98.568C42.5207 98.6333 43.0527 98.834 43.482 99.17C43.9113 99.4967 44.2473 99.9493 44.49 100.528C44.5647 100.677 44.6207 100.836 44.658 101.004C44.6953 101.163 44.7047 101.331 44.686 101.508C44.686 101.629 44.6813 101.751 44.672 101.872C44.672 101.984 44.6767 102.091 44.686 102.194C44.7513 102.605 44.686 102.959 44.49 103.258C44.3033 103.557 44.0887 103.837 43.846 104.098C43.6033 104.369 43.314 104.579 42.978 104.728C42.6513 104.877 42.2967 104.961 41.914 104.98C41.8487 104.98 41.788 104.975 41.732 104.966C41.676 104.966 41.6247 104.975 41.578 104.994C41.438 105.059 41.3073 105.041 41.186 104.938C41.1487 104.901 41.0973 104.877 41.032 104.868C40.976 104.868 40.9247 104.859 40.878 104.84C40.318 104.7 39.898 104.392 39.618 103.916C39.534 103.748 39.4873 103.547 39.478 103.314C39.4687 103.081 39.492 102.852 39.548 102.628C39.6133 102.404 39.702 102.222 39.814 102.082C39.9353 101.942 40.0567 101.807 40.178 101.676C40.2993 101.545 40.4533 101.457 40.64 101.41C40.7427 101.382 40.8407 101.359 40.934 101.34C41.0367 101.321 41.1393 101.307 41.242 101.298C41.2887 101.494 41.3073 101.681 41.298 101.858C41.2887 102.035 41.2887 102.213 41.298 102.39C41.3167 102.455 41.3307 102.516 41.34 102.572C41.3493 102.628 41.3587 102.684 41.368 102.74C41.368 102.423 41.368 102.105 41.368 101.788C41.368 101.461 41.3587 101.139 41.34 100.822C41.34 100.523 41.3307 100.229 41.312 99.94C41.3027 99.6413 41.2933 99.3333 41.284 99.016C41.1813 98.988 41.0787 98.9647 40.976 98.946C40.8827 98.918 40.7893 98.89 40.696 98.862C40.2667 98.7313 39.87 98.5447 39.506 98.302C39.1513 98.0593 38.862 97.7373 38.638 97.336ZM41.816 92.478C42.18 92.506 42.4787 92.604 42.712 92.772C43.0387 92.9867 43.3047 93.2433 43.51 93.542C43.7247 93.8313 43.818 94.1813 43.79 94.592C43.7433 95.3667 43.3653 95.9173 42.656 96.244C42.5067 96.3 42.3527 96.3513 42.194 96.398C42.0353 96.4353 41.8627 96.4027 41.676 96.3C41.676 95.6747 41.6807 95.0447 41.69 94.41C41.6993 93.7753 41.7413 93.1313 41.816 92.478ZM41.382 103.678H41.466C41.4567 103.557 41.4427 103.44 41.424 103.328C41.4147 103.216 41.4007 103.104 41.382 102.992V103.678Z" fill="white"/>
</svg>
